<svg width="338" height="160" viewBox="0 0 338 160" fill="none" xmlns="http://www.w3.org/2000/svg">
<rect width="338" height="160" rx="15" fill="#14141C"/>
<g clip-path="url(#clip0_168_1045)">
<g clip-path="url(#clip1_168_1045)">
<rect x="138.5" y="11" width="16" height="2" fill="#1F94F3"/>
<path d="M164.773 9.95455L162.352 16.5H161.33L158.909 9.95455H160L161.807 15.1705H161.875L163.682 9.95455H164.773ZM168.525 16.6364C167.934 16.6364 167.415 16.4957 166.969 16.2145C166.526 15.9332 166.18 15.5398 165.93 15.0341C165.683 14.5284 165.559 13.9375 165.559 13.2614C165.559 12.5795 165.683 11.9844 165.93 11.4759C166.18 10.9673 166.526 10.5724 166.969 10.2912C167.415 10.0099 167.934 9.86932 168.525 9.86932C169.116 9.86932 169.633 10.0099 170.076 10.2912C170.522 10.5724 170.869 10.9673 171.116 11.4759C171.366 11.9844 171.491 12.5795 171.491 13.2614C171.491 13.9375 171.366 14.5284 171.116 15.0341C170.869 15.5398 170.522 15.9332 170.076 16.2145C169.633 16.4957 169.116 16.6364 168.525 16.6364ZM168.525 15.733C168.974 15.733 169.343 15.6179 169.633 15.3878C169.923 15.1577 170.137 14.8551 170.276 14.4801C170.415 14.1051 170.485 13.6989 170.485 13.2614C170.485 12.8239 170.415 12.4162 170.276 12.0384C170.137 11.6605 169.923 11.3551 169.633 11.1222C169.343 10.8892 168.974 10.7727 168.525 10.7727C168.076 10.7727 167.707 10.8892 167.417 11.1222C167.127 11.3551 166.913 11.6605 166.773 12.0384C166.634 12.4162 166.565 12.8239 166.565 13.2614C166.565 13.6989 166.634 14.1051 166.773 14.4801C166.913 14.8551 167.127 15.1577 167.417 15.3878C167.707 15.6179 168.076 15.733 168.525 15.733ZM174.032 7.77273V16.5H173.026V7.77273H174.032ZM179.999 13.8239V9.95455H181.004V16.5H179.999V15.392H179.93C179.777 15.7244 179.538 16.0071 179.214 16.2401C178.891 16.4702 178.482 16.5852 177.987 16.5852C177.578 16.5852 177.214 16.4957 176.896 16.3168C176.578 16.1349 176.328 15.8622 176.146 15.4986C175.964 15.1321 175.874 14.6705 175.874 14.1136V9.95455H176.879V14.0455C176.879 14.5227 177.013 14.9034 177.28 15.1875C177.55 15.4716 177.893 15.6136 178.311 15.6136C178.561 15.6136 178.815 15.5497 179.074 15.4219C179.335 15.294 179.554 15.098 179.73 14.8338C179.909 14.5696 179.999 14.233 179.999 13.8239ZM182.846 16.5V9.95455H183.818V10.9773H183.903C184.039 10.6278 184.26 10.3565 184.564 10.1634C184.868 9.96733 185.233 9.86932 185.659 9.86932C186.091 9.86932 186.45 9.96733 186.737 10.1634C187.027 10.3565 187.252 10.6278 187.414 10.9773H187.483C187.65 10.6392 187.902 10.3707 188.237 10.1719C188.572 9.97017 188.974 9.86932 189.443 9.86932C190.028 9.86932 190.507 10.0526 190.879 10.419C191.251 10.7827 191.437 11.3494 191.437 12.1193V16.5H190.431V12.1193C190.431 11.6364 190.299 11.2912 190.035 11.0838C189.771 10.8764 189.46 10.7727 189.102 10.7727C188.642 10.7727 188.285 10.9119 188.032 11.1903C187.779 11.4659 187.653 11.8153 187.653 12.2386V16.5H186.63V12.017C186.63 11.6449 186.51 11.3452 186.268 11.1179C186.027 10.8878 185.716 10.7727 185.335 10.7727C185.074 10.7727 184.829 10.8423 184.602 10.9815C184.377 11.1207 184.196 11.3139 184.056 11.5611C183.92 11.8054 183.852 12.0881 183.852 12.4091V16.5H182.846ZM196.02 16.6364C195.39 16.6364 194.846 16.4972 194.388 16.2188C193.934 15.9375 193.583 15.5455 193.336 15.0426C193.091 14.5369 192.969 13.9489 192.969 13.2784C192.969 12.608 193.091 12.017 193.336 11.5057C193.583 10.9915 193.926 10.5909 194.367 10.304C194.81 10.0142 195.327 9.86932 195.918 9.86932C196.259 9.86932 196.596 9.92614 196.928 10.0398C197.26 10.1534 197.563 10.3381 197.836 10.5938C198.108 10.8466 198.326 11.1818 198.488 11.5994C198.65 12.017 198.73 12.5312 198.73 13.142V13.5682H193.685V12.6989H197.708C197.708 12.3295 197.634 12 197.486 11.7102C197.341 11.4205 197.134 11.1918 196.864 11.0241C196.597 10.8565 196.282 10.7727 195.918 10.7727C195.517 10.7727 195.171 10.8722 194.878 11.071C194.588 11.267 194.365 11.5227 194.209 11.8381C194.053 12.1534 193.975 12.4915 193.975 12.8523V13.4318C193.975 13.9261 194.06 14.3452 194.23 14.6889C194.404 15.0298 194.644 15.2898 194.951 15.4688C195.257 15.6449 195.614 15.733 196.02 15.733C196.284 15.733 196.523 15.696 196.736 15.6222C196.952 15.5455 197.138 15.4318 197.294 15.2812C197.451 15.1278 197.571 14.9375 197.657 14.7102L198.628 14.983C198.526 15.3125 198.354 15.6023 198.113 15.8523C197.871 16.0994 197.573 16.2926 197.218 16.4318C196.863 16.5682 196.463 16.6364 196.02 16.6364Z" fill="white" fill-opacity="0.8"/>
</g>
</g>
<path d="M23.9716 27.2727V36H22.9148V28.3807H22.8636L20.733 29.7955V28.7216L22.9148 27.2727H23.9716ZM29.3281 36.1193C28.6861 36.1193 28.1392 35.9446 27.6875 35.5952C27.2358 35.2429 26.8906 34.733 26.652 34.0653C26.4134 33.3949 26.294 32.5852 26.294 31.6364C26.294 30.6932 26.4134 29.8878 26.652 29.2202C26.8935 28.5497 27.2401 28.0384 27.6918 27.6861C28.1463 27.331 28.6918 27.1534 29.3281 27.1534C29.9645 27.1534 30.5085 27.331 30.9602 27.6861C31.4148 28.0384 31.7614 28.5497 32 29.2202C32.2415 29.8878 32.3622 30.6932 32.3622 31.6364C32.3622 32.5852 32.2429 33.3949 32.0043 34.0653C31.7656 34.733 31.4205 35.2429 30.9688 35.5952C30.517 35.9446 29.9702 36.1193 29.3281 36.1193ZM29.3281 35.1818C29.9645 35.1818 30.4588 34.875 30.8111 34.2614C31.1634 33.6477 31.3395 32.7727 31.3395 31.6364C31.3395 30.8807 31.2585 30.2372 31.0966 29.706C30.9375 29.1747 30.7074 28.7699 30.4062 28.4915C30.108 28.2131 29.7486 28.0739 29.3281 28.0739C28.6974 28.0739 28.2045 28.3849 27.8494 29.0071C27.4943 29.6264 27.3168 30.5028 27.3168 31.6364C27.3168 32.392 27.3963 33.0341 27.5554 33.5625C27.7145 34.0909 27.9432 34.4929 28.2415 34.7685C28.5426 35.044 28.9048 35.1818 29.3281 35.1818ZM36.8281 36.1193C36.1861 36.1193 35.6392 35.9446 35.1875 35.5952C34.7358 35.2429 34.3906 34.733 34.152 34.0653C33.9134 33.3949 33.794 32.5852 33.794 31.6364C33.794 30.6932 33.9134 29.8878 34.152 29.2202C34.3935 28.5497 34.7401 28.0384 35.1918 27.6861C35.6463 27.331 36.1918 27.1534 36.8281 27.1534C37.4645 27.1534 38.0085 27.331 38.4602 27.6861C38.9148 28.0384 39.2614 28.5497 39.5 29.2202C39.7415 29.8878 39.8622 30.6932 39.8622 31.6364C39.8622 32.5852 39.7429 33.3949 39.5043 34.0653C39.2656 34.733 38.9205 35.2429 38.4688 35.5952C38.017 35.9446 37.4702 36.1193 36.8281 36.1193ZM36.8281 35.1818C37.4645 35.1818 37.9588 34.875 38.3111 34.2614C38.6634 33.6477 38.8395 32.7727 38.8395 31.6364C38.8395 30.8807 38.7585 30.2372 38.5966 29.706C38.4375 29.1747 38.2074 28.7699 37.9062 28.4915C37.608 28.2131 37.2486 28.0739 36.8281 28.0739C36.1974 28.0739 35.7045 28.3849 35.3494 29.0071C34.9943 29.6264 34.8168 30.5028 34.8168 31.6364C34.8168 32.392 34.8963 33.0341 35.0554 33.5625C35.2145 34.0909 35.4432 34.4929 35.7415 34.7685C36.0426 35.044 36.4048 35.1818 36.8281 35.1818Z" fill="white" fill-opacity="0.8"/>
<path d="M29.6307 86.1193C29.1307 86.1193 28.6804 86.0199 28.2798 85.821C27.8793 85.6222 27.5582 85.3494 27.3168 85.0028C27.0753 84.6562 26.9432 84.2614 26.9205 83.8182H27.9432C27.983 84.2131 28.1619 84.5398 28.4801 84.7983C28.8011 85.054 29.1847 85.1818 29.6307 85.1818C29.9886 85.1818 30.3068 85.098 30.5852 84.9304C30.8665 84.7628 31.0866 84.5327 31.2457 84.2401C31.4077 83.9446 31.4886 83.6108 31.4886 83.2386C31.4886 82.858 31.4048 82.5185 31.2372 82.2202C31.0724 81.919 30.8452 81.6818 30.5554 81.5085C30.2656 81.3352 29.9347 81.2472 29.5625 81.2443C29.2955 81.2415 29.0213 81.2827 28.7401 81.3679C28.4588 81.4503 28.2273 81.5568 28.0455 81.6875L27.0568 81.5682L27.5852 77.2727H32.1193V78.2102H28.4716L28.1648 80.7841H28.2159C28.3949 80.642 28.6193 80.5241 28.8892 80.4304C29.1591 80.3366 29.4403 80.2898 29.733 80.2898C30.267 80.2898 30.7429 80.4176 31.1605 80.6733C31.581 80.9261 31.9105 81.2727 32.1491 81.7131C32.3906 82.1534 32.5114 82.6562 32.5114 83.2216C32.5114 83.7784 32.3864 84.2756 32.1364 84.7131C31.8892 85.1477 31.5483 85.4915 31.1136 85.7443C30.679 85.9943 30.1847 86.1193 29.6307 86.1193ZM37.0508 86.1193C36.4087 86.1193 35.8619 85.9446 35.4102 85.5952C34.9585 85.2429 34.6133 84.733 34.3746 84.0653C34.136 83.3949 34.0167 82.5852 34.0167 81.6364C34.0167 80.6932 34.136 79.8878 34.3746 79.2202C34.6161 78.5497 34.9627 78.0384 35.4144 77.6861C35.869 77.331 36.4144 77.1534 37.0508 77.1534C37.6871 77.1534 38.2312 77.331 38.6829 77.6861C39.1374 78.0384 39.484 78.5497 39.7227 79.2202C39.9641 79.8878 40.0849 80.6932 40.0849 81.6364C40.0849 82.5852 39.9656 83.3949 39.7269 84.0653C39.4883 84.733 39.1431 85.2429 38.6914 85.5952C38.2397 85.9446 37.6928 86.1193 37.0508 86.1193ZM37.0508 85.1818C37.6871 85.1818 38.1815 84.875 38.5337 84.2614C38.886 83.6477 39.0621 82.7727 39.0621 81.6364C39.0621 80.8807 38.9812 80.2372 38.8192 79.706C38.6602 79.1747 38.43 78.7699 38.1289 78.4915C37.8306 78.2131 37.4712 78.0739 37.0508 78.0739C36.4201 78.0739 35.9272 78.3849 35.5721 79.0071C35.217 79.6264 35.0394 80.5028 35.0394 81.6364C35.0394 82.392 35.119 83.0341 35.2781 83.5625C35.4371 84.0909 35.6658 84.4929 35.9641 84.7685C36.2653 85.044 36.6275 85.1818 37.0508 85.1818Z" fill="white" fill-opacity="0.8"/>
<path d="M36.75 136.119C36.108 136.119 35.5611 135.945 35.1094 135.595C34.6577 135.243 34.3125 134.733 34.0739 134.065C33.8352 133.395 33.7159 132.585 33.7159 131.636C33.7159 130.693 33.8352 129.888 34.0739 129.22C34.3153 128.55 34.6619 128.038 35.1136 127.686C35.5682 127.331 36.1136 127.153 36.75 127.153C37.3864 127.153 37.9304 127.331 38.3821 127.686C38.8366 128.038 39.1832 128.55 39.4219 129.22C39.6634 129.888 39.7841 130.693 39.7841 131.636C39.7841 132.585 39.6648 133.395 39.4261 134.065C39.1875 134.733 38.8423 135.243 38.3906 135.595C37.9389 135.945 37.392 136.119 36.75 136.119ZM36.75 135.182C37.3864 135.182 37.8807 134.875 38.233 134.261C38.5852 133.648 38.7614 132.773 38.7614 131.636C38.7614 130.881 38.6804 130.237 38.5185 129.706C38.3594 129.175 38.1293 128.77 37.8281 128.491C37.5298 128.213 37.1705 128.074 36.75 128.074C36.1193 128.074 35.6264 128.385 35.2713 129.007C34.9162 129.626 34.7386 130.503 34.7386 131.636C34.7386 132.392 34.8182 133.034 34.9773 133.562C35.1364 134.091 35.3651 134.493 35.6634 134.768C35.9645 135.044 36.3267 135.182 36.75 135.182Z" fill="white" fill-opacity="0.8"/>
<line x1="46" y1="132.5" x2="321" y2="132.5" stroke="#D9D9FF" stroke-opacity="0.5"/>
<g filter="url(#filter0_d_168_1045)">
<g filter="url(#filter1_ddd_168_1045)">
<path d="M56.5417 69.774C68.0834 69.774 68.0834 121.254 79.625 121.254C91.1667 121.254 91.1667 62.4212 102.708 62.4212C114.25 62.4212 114.25 41.2415 125.792 41.2415C137.333 41.2415 137.333 51.3314 148.875 51.3314C160.417 51.3314 160.417 45.0593 171.958 45.0593C183.5 45.0593 183.5 116.264 195.042 116.264C206.583 116.264 206.583 82.4192 218.125 82.4192C229.667 82.4192 229.667 100.781 241.208 100.781C252.75 100.781 252.75 93.4282 264.292 93.4282C275.833 93.4282 275.833 109.073 287.375 109.073C298.917 109.073 298.917 63.108 310.458 63.108M310.458 63.108V63.108Z" stroke="#1F94F3"/>
</g>
</g>
<path d="M53.7526 149.119C53.1106 149.119 52.5637 148.945 52.112 148.595C51.6603 148.243 51.3151 147.733 51.0765 147.065C50.8378 146.395 50.7185 145.585 50.7185 144.636C50.7185 143.693 50.8378 142.888 51.0765 142.22C51.3179 141.55 51.6645 141.038 52.1162 140.686C52.5708 140.331 53.1162 140.153 53.7526 140.153C54.389 140.153 54.933 140.331 55.3847 140.686C55.8393 141.038 56.1858 141.55 56.4245 142.22C56.666 142.888 56.7867 143.693 56.7867 144.636C56.7867 145.585 56.6674 146.395 56.4287 147.065C56.1901 147.733 55.8449 148.243 55.3932 148.595C54.9415 148.945 54.3946 149.119 53.7526 149.119ZM53.7526 148.182C54.389 148.182 54.8833 147.875 55.2356 147.261C55.5878 146.648 55.764 145.773 55.764 144.636C55.764 143.881 55.683 143.237 55.5211 142.706C55.362 142.175 55.1319 141.77 54.8307 141.491C54.5324 141.213 54.1731 141.074 53.7526 141.074C53.1219 141.074 52.629 141.385 52.2739 142.007C51.9188 142.626 51.7412 143.503 51.7412 144.636C51.7412 145.392 51.8208 146.034 51.9799 146.562C52.139 147.091 52.3677 147.493 52.666 147.768C52.9671 148.044 53.3293 148.182 53.7526 148.182ZM61.4742 140.273V149H60.4174V141.381H60.3662L58.2356 142.795V141.722L60.4174 140.273H61.4742Z" fill="white" fill-opacity="0.8"/>
<path d="M75.9922 149.119C75.3501 149.119 74.8032 148.945 74.3515 148.595C73.8998 148.243 73.5547 147.733 73.316 147.065C73.0774 146.395 72.9581 145.585 72.9581 144.636C72.9581 143.693 73.0774 142.888 73.316 142.22C73.5575 141.55 73.9041 141.038 74.3558 140.686C74.8103 140.331 75.3558 140.153 75.9922 140.153C76.6285 140.153 77.1726 140.331 77.6243 140.686C78.0788 141.038 78.4254 141.55 78.664 142.22C78.9055 142.888 79.0263 143.693 79.0263 144.636C79.0263 145.585 78.9069 146.395 78.6683 147.065C78.4297 147.733 78.0845 148.243 77.6328 148.595C77.1811 148.945 76.6342 149.119 75.9922 149.119ZM75.9922 148.182C76.6285 148.182 77.1228 147.875 77.4751 147.261C77.8274 146.648 78.0035 145.773 78.0035 144.636C78.0035 143.881 77.9226 143.237 77.7606 142.706C77.6015 142.175 77.3714 141.77 77.0703 141.491C76.772 141.213 76.4126 141.074 75.9922 141.074C75.3615 141.074 74.8686 141.385 74.5135 142.007C74.1584 142.626 73.9808 143.503 73.9808 144.636C73.9808 145.392 74.0603 146.034 74.2194 146.562C74.3785 147.091 74.6072 147.493 74.9055 147.768C75.2067 148.044 75.5689 148.182 75.9922 148.182ZM80.6456 149V148.233L83.5263 145.08C83.8643 144.71 84.1427 144.389 84.3615 144.116C84.5802 143.841 84.7422 143.582 84.8473 143.341C84.9552 143.097 85.0092 142.841 85.0092 142.574C85.0092 142.267 84.9353 142.001 84.7876 141.777C84.6427 141.553 84.4439 141.379 84.191 141.257C83.9382 141.135 83.6541 141.074 83.3388 141.074C83.0035 141.074 82.7109 141.143 82.4609 141.283C82.2138 141.419 82.022 141.611 81.8856 141.858C81.7521 142.105 81.6853 142.395 81.6853 142.727H80.6797C80.6797 142.216 80.7976 141.767 81.0334 141.381C81.2692 140.994 81.5902 140.693 81.9964 140.477C82.4055 140.261 82.8643 140.153 83.3728 140.153C83.8842 140.153 84.3373 140.261 84.7322 140.477C85.1271 140.693 85.4368 140.984 85.6612 141.351C85.8856 141.717 85.9978 142.125 85.9978 142.574C85.9978 142.895 85.9396 143.209 85.8231 143.516C85.7095 143.82 85.5106 144.159 85.2265 144.534C84.9453 144.906 84.5547 145.361 84.0547 145.898L82.0944 147.994V148.062H86.1513V149H80.6456Z" fill="white" fill-opacity="0.8"/>
<path d="M98.888 149.119C98.246 149.119 97.6991 148.945 97.2474 148.595C96.7957 148.243 96.4505 147.733 96.2119 147.065C95.9733 146.395 95.854 145.585 95.854 144.636C95.854 143.693 95.9733 142.888 96.2119 142.22C96.4534 141.55 96.8 141.038 97.2517 140.686C97.7062 140.331 98.2517 140.153 98.888 140.153C99.5244 140.153 100.068 140.331 100.52 140.686C100.975 141.038 101.321 141.55 101.56 142.22C101.801 142.888 101.922 143.693 101.922 144.636C101.922 145.585 101.803 146.395 101.564 147.065C101.326 147.733 100.98 148.243 100.529 148.595C100.077 148.945 99.5301 149.119 98.888 149.119ZM98.888 148.182C99.5244 148.182 100.019 147.875 100.371 147.261C100.723 146.648 100.899 145.773 100.899 144.636C100.899 143.881 100.818 143.237 100.657 142.706C100.497 142.175 100.267 141.77 99.9662 141.491C99.6679 141.213 99.3085 141.074 98.888 141.074C98.2574 141.074 97.7645 141.385 97.4093 142.007C97.0542 142.626 96.8767 143.503 96.8767 144.636C96.8767 145.392 96.9562 146.034 97.1153 146.562C97.2744 147.091 97.5031 147.493 97.8014 147.768C98.1025 148.044 98.4647 148.182 98.888 148.182ZM106.49 149.119C105.928 149.119 105.426 149.023 104.986 148.83C104.549 148.636 104.201 148.368 103.942 148.024C103.686 147.678 103.547 147.276 103.524 146.818H104.598C104.621 147.099 104.718 147.342 104.888 147.547C105.058 147.749 105.282 147.905 105.557 148.016C105.833 148.126 106.138 148.182 106.473 148.182C106.848 148.182 107.181 148.116 107.47 147.986C107.76 147.855 107.987 147.673 108.152 147.44C108.317 147.207 108.399 146.938 108.399 146.631C108.399 146.31 108.32 146.027 108.161 145.783C108.002 145.536 107.769 145.342 107.462 145.203C107.155 145.064 106.78 144.994 106.337 144.994H105.638V144.057H106.337C106.683 144.057 106.987 143.994 107.249 143.869C107.513 143.744 107.719 143.568 107.867 143.341C108.017 143.114 108.093 142.847 108.093 142.54C108.093 142.244 108.027 141.987 107.897 141.768C107.766 141.55 107.581 141.379 107.343 141.257C107.107 141.135 106.828 141.074 106.507 141.074C106.206 141.074 105.922 141.129 105.655 141.24C105.391 141.348 105.175 141.506 105.007 141.713C104.84 141.918 104.749 142.165 104.735 142.455H103.712C103.729 141.997 103.867 141.597 104.125 141.253C104.384 140.906 104.722 140.636 105.139 140.443C105.56 140.25 106.022 140.153 106.524 140.153C107.064 140.153 107.527 140.263 107.914 140.482C108.3 140.697 108.597 140.983 108.804 141.338C109.012 141.693 109.115 142.077 109.115 142.489C109.115 142.98 108.986 143.399 108.728 143.746C108.472 144.092 108.124 144.332 107.683 144.466V144.534C108.235 144.625 108.665 144.859 108.975 145.237C109.284 145.612 109.439 146.077 109.439 146.631C109.439 147.105 109.31 147.531 109.051 147.909C108.796 148.284 108.446 148.58 108.003 148.795C107.56 149.011 107.056 149.119 106.49 149.119Z" fill="white" fill-opacity="0.8"/>
<path d="M121.942 149.119C121.3 149.119 120.753 148.945 120.301 148.595C119.85 148.243 119.505 147.733 119.266 147.065C119.027 146.395 118.908 145.585 118.908 144.636C118.908 143.693 119.027 142.888 119.266 142.22C119.507 141.55 119.854 141.038 120.306 140.686C120.76 140.331 121.306 140.153 121.942 140.153C122.578 140.153 123.122 140.331 123.574 140.686C124.029 141.038 124.375 141.55 124.614 142.22C124.855 142.888 124.976 143.693 124.976 144.636C124.976 145.585 124.857 146.395 124.618 147.065C124.38 147.733 124.034 148.243 123.583 148.595C123.131 148.945 122.584 149.119 121.942 149.119ZM121.942 148.182C122.578 148.182 123.073 147.875 123.425 147.261C123.777 146.648 123.953 145.773 123.953 144.636C123.953 143.881 123.872 143.237 123.711 142.706C123.551 142.175 123.321 141.77 123.02 141.491C122.722 141.213 122.363 141.074 121.942 141.074C121.311 141.074 120.818 141.385 120.463 142.007C120.108 142.626 119.931 143.503 119.931 144.636C119.931 145.392 120.01 146.034 120.169 146.562C120.328 147.091 120.557 147.493 120.855 147.768C121.157 148.044 121.519 148.182 121.942 148.182ZM126.391 147.21V146.341L130.226 140.273H130.857V141.619H130.431L127.533 146.205V146.273H132.698V147.21H126.391ZM130.499 149V146.946V146.541V140.273H131.505V149H130.499Z" fill="white" fill-opacity="0.8"/>
<path d="M145.225 149.119C144.583 149.119 144.036 148.945 143.584 148.595C143.132 148.243 142.787 147.733 142.549 147.065C142.31 146.395 142.191 145.585 142.191 144.636C142.191 143.693 142.31 142.888 142.549 142.22C142.79 141.55 143.137 141.038 143.588 140.686C144.043 140.331 144.588 140.153 145.225 140.153C145.861 140.153 146.405 140.331 146.857 140.686C147.311 141.038 147.658 141.55 147.897 142.22C148.138 142.888 148.259 143.693 148.259 144.636C148.259 145.585 148.139 146.395 147.901 147.065C147.662 147.733 147.317 148.243 146.865 148.595C146.414 148.945 145.867 149.119 145.225 149.119ZM145.225 148.182C145.861 148.182 146.355 147.875 146.708 147.261C147.06 146.648 147.236 145.773 147.236 144.636C147.236 143.881 147.155 143.237 146.993 142.706C146.834 142.175 146.604 141.77 146.303 141.491C146.004 141.213 145.645 141.074 145.225 141.074C144.594 141.074 144.101 141.385 143.746 142.007C143.391 142.626 143.213 143.503 143.213 144.636C143.213 145.392 143.293 146.034 143.452 146.562C143.611 147.091 143.84 147.493 144.138 147.768C144.439 148.044 144.801 148.182 145.225 148.182ZM152.605 149.119C152.105 149.119 151.655 149.02 151.254 148.821C150.854 148.622 150.533 148.349 150.291 148.003C150.05 147.656 149.918 147.261 149.895 146.818H150.918C150.958 147.213 151.137 147.54 151.455 147.798C151.776 148.054 152.159 148.182 152.605 148.182C152.963 148.182 153.281 148.098 153.56 147.93C153.841 147.763 154.061 147.533 154.22 147.24C154.382 146.945 154.463 146.611 154.463 146.239C154.463 145.858 154.379 145.518 154.212 145.22C154.047 144.919 153.82 144.682 153.53 144.509C153.24 144.335 152.909 144.247 152.537 144.244C152.27 144.241 151.996 144.283 151.715 144.368C151.433 144.45 151.202 144.557 151.02 144.688L150.031 144.568L150.56 140.273H155.094V141.21H151.446L151.139 143.784H151.191C151.37 143.642 151.594 143.524 151.864 143.43C152.134 143.337 152.415 143.29 152.708 143.29C153.242 143.29 153.718 143.418 154.135 143.673C154.556 143.926 154.885 144.273 155.124 144.713C155.365 145.153 155.486 145.656 155.486 146.222C155.486 146.778 155.361 147.276 155.111 147.713C154.864 148.148 154.523 148.491 154.088 148.744C153.654 148.994 153.159 149.119 152.605 149.119Z" fill="white" fill-opacity="0.8"/>
<path d="M168.214 149.119C167.572 149.119 167.025 148.945 166.574 148.595C166.122 148.243 165.777 147.733 165.538 147.065C165.299 146.395 165.18 145.585 165.18 144.636C165.18 143.693 165.299 142.888 165.538 142.22C165.78 141.55 166.126 141.038 166.578 140.686C167.032 140.331 167.578 140.153 168.214 140.153C168.851 140.153 169.395 140.331 169.846 140.686C170.301 141.038 170.647 141.55 170.886 142.22C171.128 142.888 171.248 143.693 171.248 144.636C171.248 145.585 171.129 146.395 170.89 147.065C170.652 147.733 170.307 148.243 169.855 148.595C169.403 148.945 168.856 149.119 168.214 149.119ZM168.214 148.182C168.851 148.182 169.345 147.875 169.697 147.261C170.049 146.648 170.226 145.773 170.226 144.636C170.226 143.881 170.145 143.237 169.983 142.706C169.824 142.175 169.593 141.77 169.292 141.491C168.994 141.213 168.635 141.074 168.214 141.074C167.584 141.074 167.091 141.385 166.736 142.007C166.38 142.626 166.203 143.503 166.203 144.636C166.203 145.392 166.282 146.034 166.441 146.562C166.601 147.091 166.829 147.493 167.128 147.768C167.429 148.044 167.791 148.182 168.214 148.182ZM175.765 149.119C175.407 149.114 175.049 149.045 174.691 148.915C174.334 148.784 174.007 148.564 173.711 148.254C173.416 147.942 173.179 147.52 173 146.989C172.821 146.455 172.731 145.784 172.731 144.977C172.731 144.205 172.804 143.52 172.949 142.923C173.093 142.324 173.304 141.82 173.579 141.411C173.855 140.999 174.187 140.686 174.576 140.473C174.968 140.26 175.41 140.153 175.902 140.153C176.39 140.153 176.825 140.251 177.206 140.447C177.589 140.641 177.902 140.911 178.143 141.257C178.385 141.604 178.541 142.003 178.612 142.455H177.572C177.476 142.062 177.288 141.737 177.01 141.479C176.731 141.22 176.362 141.091 175.902 141.091C175.226 141.091 174.693 141.385 174.304 141.973C173.917 142.561 173.723 143.386 173.72 144.449H173.788C173.947 144.207 174.136 144.001 174.355 143.831C174.576 143.658 174.821 143.524 175.088 143.43C175.355 143.337 175.638 143.29 175.936 143.29C176.436 143.29 176.893 143.415 177.308 143.665C177.723 143.912 178.055 144.254 178.305 144.692C178.555 145.126 178.68 145.625 178.68 146.188C178.68 146.727 178.559 147.222 178.318 147.67C178.076 148.116 177.737 148.472 177.299 148.736C176.865 148.997 176.353 149.125 175.765 149.119ZM175.765 148.182C176.123 148.182 176.444 148.092 176.728 147.913C177.015 147.734 177.241 147.494 177.406 147.193C177.574 146.892 177.657 146.557 177.657 146.188C177.657 145.827 177.576 145.499 177.414 145.203C177.255 144.905 177.035 144.668 176.754 144.491C176.476 144.315 176.157 144.227 175.799 144.227C175.53 144.227 175.278 144.281 175.045 144.389C174.812 144.494 174.608 144.639 174.432 144.824C174.258 145.009 174.122 145.22 174.022 145.459C173.923 145.695 173.873 145.943 173.873 146.205C173.873 146.551 173.954 146.875 174.116 147.176C174.281 147.477 174.505 147.72 174.789 147.905C175.076 148.089 175.402 148.182 175.765 148.182Z" fill="white" fill-opacity="0.8"/>
<path d="M191.731 149.119C191.089 149.119 190.542 148.945 190.09 148.595C189.639 148.243 189.294 147.733 189.055 147.065C188.816 146.395 188.697 145.585 188.697 144.636C188.697 143.693 188.816 142.888 189.055 142.22C189.296 141.55 189.643 141.038 190.095 140.686C190.549 140.331 191.095 140.153 191.731 140.153C192.367 140.153 192.912 140.331 193.363 140.686C193.818 141.038 194.164 141.55 194.403 142.22C194.644 142.888 194.765 143.693 194.765 144.636C194.765 145.585 194.646 146.395 194.407 147.065C194.169 147.733 193.823 148.243 193.372 148.595C192.92 148.945 192.373 149.119 191.731 149.119ZM191.731 148.182C192.367 148.182 192.862 147.875 193.214 147.261C193.566 146.648 193.742 145.773 193.742 144.636C193.742 143.881 193.662 143.237 193.5 142.706C193.34 142.175 193.11 141.77 192.809 141.491C192.511 141.213 192.152 141.074 191.731 141.074C191.1 141.074 190.608 141.385 190.252 142.007C189.897 142.626 189.72 143.503 189.72 144.636C189.72 145.392 189.799 146.034 189.958 146.562C190.117 147.091 190.346 147.493 190.644 147.768C190.946 148.044 191.308 148.182 191.731 148.182ZM196.423 149L200.326 141.278V141.21H195.826V140.273H201.417V141.261L197.531 149H196.423Z" fill="white" fill-opacity="0.8"/>
<path d="M214.428 149.119C213.786 149.119 213.239 148.945 212.787 148.595C212.335 148.243 211.99 147.733 211.752 147.065C211.513 146.395 211.394 145.585 211.394 144.636C211.394 143.693 211.513 142.888 211.752 142.22C211.993 141.55 212.34 141.038 212.791 140.686C213.246 140.331 213.791 140.153 214.428 140.153C215.064 140.153 215.608 140.331 216.06 140.686C216.514 141.038 216.861 141.55 217.1 142.22C217.341 142.888 217.462 143.693 217.462 144.636C217.462 145.585 217.343 146.395 217.104 147.065C216.865 147.733 216.52 148.243 216.068 148.595C215.617 148.945 215.07 149.119 214.428 149.119ZM214.428 148.182C215.064 148.182 215.558 147.875 215.911 147.261C216.263 146.648 216.439 145.773 216.439 144.636C216.439 143.881 216.358 143.237 216.196 142.706C216.037 142.175 215.807 141.77 215.506 141.491C215.208 141.213 214.848 141.074 214.428 141.074C213.797 141.074 213.304 141.385 212.949 142.007C212.594 142.626 212.416 143.503 212.416 144.636C212.416 145.392 212.496 146.034 212.655 146.562C212.814 147.091 213.043 147.493 213.341 147.768C213.642 148.044 214.004 148.182 214.428 148.182ZM221.877 149.119C221.291 149.119 220.774 149.016 220.326 148.808C219.879 148.598 219.531 148.31 219.281 147.943C219.031 147.574 218.908 147.153 218.911 146.682C218.908 146.312 218.98 145.972 219.128 145.659C219.276 145.344 219.477 145.081 219.733 144.871C219.992 144.658 220.28 144.523 220.598 144.466V144.415C220.181 144.307 219.848 144.072 219.601 143.712C219.354 143.348 219.232 142.935 219.235 142.472C219.232 142.028 219.344 141.632 219.571 141.283C219.799 140.933 220.111 140.658 220.509 140.456C220.909 140.254 221.365 140.153 221.877 140.153C222.382 140.153 222.834 140.254 223.232 140.456C223.629 140.658 223.942 140.933 224.169 141.283C224.399 141.632 224.516 142.028 224.519 142.472C224.516 142.935 224.389 143.348 224.139 143.712C223.892 144.072 223.564 144.307 223.155 144.415V144.466C223.47 144.523 223.754 144.658 224.007 144.871C224.26 145.081 224.462 145.344 224.612 145.659C224.763 145.972 224.84 146.312 224.843 146.682C224.84 147.153 224.712 147.574 224.459 147.943C224.209 148.31 223.861 148.598 223.415 148.808C222.972 149.016 222.459 149.119 221.877 149.119ZM221.877 148.182C222.272 148.182 222.612 148.118 222.899 147.99C223.186 147.862 223.408 147.682 223.564 147.449C223.72 147.216 223.8 146.943 223.803 146.631C223.8 146.301 223.715 146.01 223.547 145.757C223.379 145.504 223.151 145.305 222.861 145.161C222.574 145.016 222.246 144.943 221.877 144.943C221.504 144.943 221.172 145.016 220.879 145.161C220.59 145.305 220.361 145.504 220.193 145.757C220.029 146.01 219.948 146.301 219.951 146.631C219.948 146.943 220.023 147.216 220.176 147.449C220.333 147.682 220.556 147.862 220.845 147.99C221.135 148.118 221.479 148.182 221.877 148.182ZM221.877 144.04C222.189 144.04 222.466 143.977 222.708 143.852C222.952 143.727 223.144 143.553 223.283 143.328C223.422 143.104 223.493 142.841 223.496 142.54C223.493 142.244 223.424 141.987 223.287 141.768C223.151 141.547 222.962 141.376 222.72 141.257C222.479 141.135 222.198 141.074 221.877 141.074C221.55 141.074 221.264 141.135 221.02 141.257C220.776 141.376 220.587 141.547 220.453 141.768C220.32 141.987 220.254 142.244 220.257 142.54C220.254 142.841 220.321 143.104 220.458 143.328C220.597 143.553 220.789 143.727 221.033 143.852C221.277 143.977 221.558 144.04 221.877 144.04Z" fill="white" fill-opacity="0.8"/>
<path d="M237.464 149.119C236.822 149.119 236.275 148.945 235.824 148.595C235.372 148.243 235.027 147.733 234.788 147.065C234.549 146.395 234.43 145.585 234.43 144.636C234.43 143.693 234.549 142.888 234.788 142.22C235.03 141.55 235.376 141.038 235.828 140.686C236.282 140.331 236.828 140.153 237.464 140.153C238.101 140.153 238.645 140.331 239.096 140.686C239.551 141.038 239.897 141.55 240.136 142.22C240.378 142.888 240.498 143.693 240.498 144.636C240.498 145.585 240.379 146.395 240.14 147.065C239.902 147.733 239.557 148.243 239.105 148.595C238.653 148.945 238.106 149.119 237.464 149.119ZM237.464 148.182C238.101 148.182 238.595 147.875 238.947 147.261C239.299 146.648 239.476 145.773 239.476 144.636C239.476 143.881 239.395 143.237 239.233 142.706C239.074 142.175 238.843 141.77 238.542 141.491C238.244 141.213 237.885 141.074 237.464 141.074C236.834 141.074 236.341 141.385 235.986 142.007C235.63 142.626 235.453 143.503 235.453 144.636C235.453 145.392 235.532 146.034 235.691 146.562C235.851 147.091 236.079 147.493 236.378 147.768C236.679 148.044 237.041 148.182 237.464 148.182ZM244.896 140.153C245.254 140.156 245.612 140.224 245.97 140.358C246.328 140.491 246.655 140.713 246.95 141.023C247.245 141.33 247.483 141.749 247.662 142.28C247.841 142.811 247.93 143.477 247.93 144.278C247.93 145.054 247.856 145.743 247.709 146.345C247.564 146.945 247.353 147.45 247.078 147.862C246.805 148.274 246.473 148.587 246.081 148.8C245.691 149.013 245.251 149.119 244.76 149.119C244.271 149.119 243.835 149.023 243.451 148.83C243.071 148.634 242.758 148.362 242.514 148.016C242.272 147.666 242.118 147.261 242.049 146.801H243.089C243.183 147.202 243.369 147.533 243.647 147.794C243.929 148.053 244.299 148.182 244.76 148.182C245.433 148.182 245.964 147.888 246.353 147.3C246.745 146.712 246.941 145.881 246.941 144.807H246.873C246.714 145.045 246.525 145.251 246.307 145.425C246.088 145.598 245.845 145.732 245.578 145.825C245.311 145.919 245.027 145.966 244.726 145.966C244.226 145.966 243.767 145.842 243.349 145.595C242.934 145.345 242.602 145.003 242.352 144.568C242.105 144.131 241.981 143.631 241.981 143.068C241.981 142.534 242.101 142.045 242.339 141.602C242.581 141.156 242.919 140.801 243.353 140.537C243.791 140.273 244.305 140.145 244.896 140.153ZM244.896 141.091C244.538 141.091 244.216 141.18 243.929 141.359C243.645 141.536 243.419 141.774 243.251 142.075C243.086 142.374 243.004 142.705 243.004 143.068C243.004 143.432 243.084 143.763 243.243 144.061C243.405 144.357 243.625 144.592 243.903 144.768C244.184 144.942 244.504 145.028 244.862 145.028C245.132 145.028 245.383 144.976 245.616 144.871C245.849 144.763 246.052 144.616 246.226 144.432C246.402 144.244 246.539 144.033 246.639 143.797C246.738 143.558 246.788 143.31 246.788 143.051C246.788 142.71 246.706 142.391 246.541 142.092C246.379 141.794 246.155 141.553 245.868 141.368C245.584 141.183 245.26 141.091 244.896 141.091Z" fill="white" fill-opacity="0.8"/>
<path d="M261.724 140.273V149H260.667V141.381H260.616L258.486 142.795V141.722L260.667 140.273H261.724ZM267.081 149.119C266.439 149.119 265.892 148.945 265.44 148.595C264.988 148.243 264.643 147.733 264.405 147.065C264.166 146.395 264.047 145.585 264.047 144.636C264.047 143.693 264.166 142.888 264.405 142.22C264.646 141.55 264.993 141.038 265.444 140.686C265.899 140.331 266.444 140.153 267.081 140.153C267.717 140.153 268.261 140.331 268.713 140.686C269.167 141.038 269.514 141.55 269.753 142.22C269.994 142.888 270.115 143.693 270.115 144.636C270.115 145.585 269.996 146.395 269.757 147.065C269.518 147.733 269.173 148.243 268.721 148.595C268.27 148.945 267.723 149.119 267.081 149.119ZM267.081 148.182C267.717 148.182 268.211 147.875 268.564 147.261C268.916 146.648 269.092 145.773 269.092 144.636C269.092 143.881 269.011 143.237 268.849 142.706C268.69 142.175 268.46 141.77 268.159 141.491C267.861 141.213 267.501 141.074 267.081 141.074C266.45 141.074 265.957 141.385 265.602 142.007C265.247 142.626 265.069 143.503 265.069 144.636C265.069 145.392 265.149 146.034 265.308 146.562C265.467 147.091 265.696 147.493 265.994 147.768C266.295 148.044 266.657 148.182 267.081 148.182Z" fill="white" fill-opacity="0.8"/>
<path d="M285.769 140.273V149H284.712V141.381H284.661L282.53 142.795V141.722L284.712 140.273H285.769ZM291.347 140.273V149H290.29V141.381H290.239L288.108 142.795V141.722L290.29 140.273H291.347Z" fill="white" fill-opacity="0.8"/>
<path d="M308.008 140.273V149H306.951V141.381H306.9L304.769 142.795V141.722L306.951 140.273H308.008ZM310.518 149V148.233L313.399 145.08C313.737 144.71 314.015 144.389 314.234 144.116C314.453 143.841 314.615 143.582 314.72 143.341C314.828 143.097 314.882 142.841 314.882 142.574C314.882 142.267 314.808 142.001 314.66 141.777C314.515 141.553 314.316 141.379 314.064 141.257C313.811 141.135 313.527 141.074 313.211 141.074C312.876 141.074 312.583 141.143 312.333 141.283C312.086 141.419 311.894 141.611 311.758 141.858C311.625 142.105 311.558 142.395 311.558 142.727H310.552C310.552 142.216 310.67 141.767 310.906 141.381C311.142 140.994 311.463 140.693 311.869 140.477C312.278 140.261 312.737 140.153 313.245 140.153C313.757 140.153 314.21 140.261 314.605 140.477C315 140.693 315.309 140.984 315.534 141.351C315.758 141.717 315.87 142.125 315.87 142.574C315.87 142.895 315.812 143.209 315.696 143.516C315.582 143.82 315.383 144.159 315.099 144.534C314.818 144.906 314.427 145.361 313.927 145.898L311.967 147.994V148.062H316.024V149H310.518Z" fill="white" fill-opacity="0.8"/>
<defs>
<filter id="filter0_d_168_1045" x="21" y="11" width="325" height="149" filterUnits="userSpaceOnUse" color-interpolation-filters="sRGB">
<feFlood flood-opacity="0" result="BackgroundImageFix"/>
<feColorMatrix in="SourceAlpha" type="matrix" values="0 0 0 0 0 0 0 0 0 0 0 0 0 0 0 0 0 0 127 0" result="hardAlpha"/>
<feOffset dy="4"/>
<feGaussianBlur stdDeviation="12"/>
<feComposite in2="hardAlpha" operator="out"/>
<feColorMatrix type="matrix" values="0 0 0 0 0.121065 0 0 0 0 0.581653 0 0 0 0 0.953846 0 0 0 1 0"/>
<feBlend mode="normal" in2="BackgroundImageFix" result="effect1_dropShadow_168_1045"/>
<feBlend mode="normal" in="SourceGraphic" in2="effect1_dropShadow_168_1045" result="shape"/>
</filter>
<filter id="filter1_ddd_168_1045" x="38.5417" y="31.7415" width="289.917" height="117.012" filterUnits="userSpaceOnUse" color-interpolation-filters="sRGB">
<feFlood flood-opacity="0" result="BackgroundImageFix"/>
<feColorMatrix in="SourceAlpha" type="matrix" values="0 0 0 0 0 0 0 0 0 0 0 0 0 0 0 0 0 0 127 0" result="hardAlpha"/>
<feOffset dy="3"/>
<feGaussianBlur stdDeviation="1.5"/>
<feColorMatrix type="matrix" values="0 0 0 0 0.117647 0 0 0 0 0.227451 0 0 0 0 0.541176 0 0 0 0.4 0"/>
<feBlend mode="normal" in2="BackgroundImageFix" result="effect1_dropShadow_168_1045"/>
<feColorMatrix in="SourceAlpha" type="matrix" values="0 0 0 0 0 0 0 0 0 0 0 0 0 0 0 0 0 0 127 0" result="hardAlpha"/>
<feOffset dy="6"/>
<feGaussianBlur stdDeviation="4.5"/>
<feColorMatrix type="matrix" values="0 0 0 0 0.117647 0 0 0 0 0.227451 0 0 0 0 0.541176 0 0 0 0.4 0"/>
<feBlend mode="normal" in2="effect1_dropShadow_168_1045" result="effect2_dropShadow_168_1045"/>
<feColorMatrix in="SourceAlpha" type="matrix" values="0 0 0 0 0 0 0 0 0 0 0 0 0 0 0 0 0 0 127 0" result="hardAlpha"/>
<feOffset dy="9"/>
<feGaussianBlur stdDeviation="9"/>
<feColorMatrix type="matrix" values="0 0 0 0 0.117647 0 0 0 0 0.227451 0 0 0 0 0.541176 0 0 0 0.4 0"/>
<feBlend mode="normal" in2="effect2_dropShadow_168_1045" result="effect3_dropShadow_168_1045"/>
<feBlend mode="normal" in="SourceGraphic" in2="effect3_dropShadow_168_1045" result="shape"/>
</filter>
<clipPath id="clip0_168_1045">
<rect width="306" height="24" fill="white" transform="translate(16)"/>
</clipPath>
<clipPath id="clip1_168_1045">
<rect width="85" height="24" fill="white" transform="translate(126.5)"/>
</clipPath>
</defs>
</svg>
