<svg width="338" height="260" viewBox="0 0 338 260" fill="none" xmlns="http://www.w3.org/2000/svg">
<rect width="338" height="260" rx="15" fill="#1B1F2A"/>
<path d="M23.9716 19.2727V28H22.9148V20.3807H22.8636L20.733 21.7955V20.7216L22.9148 19.2727H23.9716ZM29.3281 28.1193C28.6861 28.1193 28.1392 27.9446 27.6875 27.5952C27.2358 27.2429 26.8906 26.733 26.652 26.0653C26.4134 25.3949 26.294 24.5852 26.294 23.6364C26.294 22.6932 26.4134 21.8878 26.652 21.2202C26.8935 20.5497 27.2401 20.0384 27.6918 19.6861C28.1463 19.331 28.6918 19.1534 29.3281 19.1534C29.9645 19.1534 30.5085 19.331 30.9602 19.6861C31.4148 20.0384 31.7614 20.5497 32 21.2202C32.2415 21.8878 32.3622 22.6932 32.3622 23.6364C32.3622 24.5852 32.2429 25.3949 32.0043 26.0653C31.7656 26.733 31.4205 27.2429 30.9688 27.5952C30.517 27.9446 29.9702 28.1193 29.3281 28.1193ZM29.3281 27.1818C29.9645 27.1818 30.4588 26.875 30.8111 26.2614C31.1634 25.6477 31.3395 24.7727 31.3395 23.6364C31.3395 22.8807 31.2585 22.2372 31.0966 21.706C30.9375 21.1747 30.7074 20.7699 30.4062 20.4915C30.108 20.2131 29.7486 20.0739 29.3281 20.0739C28.6974 20.0739 28.2045 20.3849 27.8494 21.0071C27.4943 21.6264 27.3168 22.5028 27.3168 23.6364C27.3168 24.392 27.3963 25.0341 27.5554 25.5625C27.7145 26.0909 27.9432 26.4929 28.2415 26.7685C28.5426 27.044 28.9048 27.1818 29.3281 27.1818ZM36.8281 28.1193C36.1861 28.1193 35.6392 27.9446 35.1875 27.5952C34.7358 27.2429 34.3906 26.733 34.152 26.0653C33.9134 25.3949 33.794 24.5852 33.794 23.6364C33.794 22.6932 33.9134 21.8878 34.152 21.2202C34.3935 20.5497 34.7401 20.0384 35.1918 19.6861C35.6463 19.331 36.1918 19.1534 36.8281 19.1534C37.4645 19.1534 38.0085 19.331 38.4602 19.6861C38.9148 20.0384 39.2614 20.5497 39.5 21.2202C39.7415 21.8878 39.8622 22.6932 39.8622 23.6364C39.8622 24.5852 39.7429 25.3949 39.5043 26.0653C39.2656 26.733 38.9205 27.2429 38.4688 27.5952C38.017 27.9446 37.4702 28.1193 36.8281 28.1193ZM36.8281 27.1818C37.4645 27.1818 37.9588 26.875 38.3111 26.2614C38.6634 25.6477 38.8395 24.7727 38.8395 23.6364C38.8395 22.8807 38.7585 22.2372 38.5966 21.706C38.4375 21.1747 38.2074 20.7699 37.9062 20.4915C37.608 20.2131 37.2486 20.0739 36.8281 20.0739C36.1974 20.0739 35.7045 20.3849 35.3494 21.0071C34.9943 21.6264 34.8168 22.5028 34.8168 23.6364C34.8168 24.392 34.8963 25.0341 35.0554 25.5625C35.2145 26.0909 35.4432 26.4929 35.7415 26.7685C36.0426 27.044 36.4048 27.1818 36.8281 27.1818Z" fill="white" fill-opacity="0.8"/>
<path d="M27.1761 70L31.0795 62.2784V62.2102H26.5795V61.2727H32.1705V62.2614L28.2841 70H27.1761ZM36.369 70.1193C35.869 70.1193 35.4187 70.0199 35.0181 69.821C34.6175 69.6222 34.2965 69.3494 34.055 69.0028C33.8136 68.6562 33.6815 68.2614 33.6587 67.8182H34.6815C34.7212 68.2131 34.9002 68.5398 35.2184 68.7983C35.5394 69.054 35.9229 69.1818 36.369 69.1818C36.7269 69.1818 37.0451 69.098 37.3235 68.9304C37.6048 68.7628 37.8249 68.5327 37.984 68.2401C38.146 67.9446 38.2269 67.6108 38.2269 67.2386C38.2269 66.858 38.1431 66.5185 37.9755 66.2202C37.8107 65.919 37.5835 65.6818 37.2937 65.5085C37.0039 65.3352 36.6729 65.2472 36.3008 65.2443C36.0337 65.2415 35.7596 65.2827 35.4783 65.3679C35.1971 65.4503 34.9656 65.5568 34.7837 65.6875L33.7951 65.5682L34.3235 61.2727H38.8576V62.2102H35.2099L34.9031 64.7841H34.9542C35.1332 64.642 35.3576 64.5241 35.6275 64.4304C35.8974 64.3366 36.1786 64.2898 36.4712 64.2898C37.0053 64.2898 37.4812 64.4176 37.8988 64.6733C38.3192 64.9261 38.6488 65.2727 38.8874 65.7131C39.1289 66.1534 39.2496 66.6562 39.2496 67.2216C39.2496 67.7784 39.1246 68.2756 38.8746 68.7131C38.6275 69.1477 38.2866 69.4915 37.8519 69.7443C37.4173 69.9943 36.9229 70.1193 36.369 70.1193Z" fill="white" fill-opacity="0.8"/>
<path d="M29.6307 112.119C29.1307 112.119 28.6804 112.02 28.2798 111.821C27.8793 111.622 27.5582 111.349 27.3168 111.003C27.0753 110.656 26.9432 110.261 26.9205 109.818H27.9432C27.983 110.213 28.1619 110.54 28.4801 110.798C28.8011 111.054 29.1847 111.182 29.6307 111.182C29.9886 111.182 30.3068 111.098 30.5852 110.93C30.8665 110.763 31.0866 110.533 31.2457 110.24C31.4077 109.945 31.4886 109.611 31.4886 109.239C31.4886 108.858 31.4048 108.518 31.2372 108.22C31.0724 107.919 30.8452 107.682 30.5554 107.509C30.2656 107.335 29.9347 107.247 29.5625 107.244C29.2955 107.241 29.0213 107.283 28.7401 107.368C28.4588 107.45 28.2273 107.557 28.0455 107.688L27.0568 107.568L27.5852 103.273H32.1193V104.21H28.4716L28.1648 106.784H28.2159C28.3949 106.642 28.6193 106.524 28.8892 106.43C29.1591 106.337 29.4403 106.29 29.733 106.29C30.267 106.29 30.7429 106.418 31.1605 106.673C31.581 106.926 31.9105 107.273 32.1491 107.713C32.3906 108.153 32.5114 108.656 32.5114 109.222C32.5114 109.778 32.3864 110.276 32.1364 110.713C31.8892 111.148 31.5483 111.491 31.1136 111.744C30.679 111.994 30.1847 112.119 29.6307 112.119ZM37.0508 112.119C36.4087 112.119 35.8619 111.945 35.4102 111.595C34.9585 111.243 34.6133 110.733 34.3746 110.065C34.136 109.395 34.0167 108.585 34.0167 107.636C34.0167 106.693 34.136 105.888 34.3746 105.22C34.6161 104.55 34.9627 104.038 35.4144 103.686C35.869 103.331 36.4144 103.153 37.0508 103.153C37.6871 103.153 38.2312 103.331 38.6829 103.686C39.1374 104.038 39.484 104.55 39.7227 105.22C39.9641 105.888 40.0849 106.693 40.0849 107.636C40.0849 108.585 39.9656 109.395 39.7269 110.065C39.4883 110.733 39.1431 111.243 38.6914 111.595C38.2397 111.945 37.6928 112.119 37.0508 112.119ZM37.0508 111.182C37.6871 111.182 38.1815 110.875 38.5337 110.261C38.886 109.648 39.0621 108.773 39.0621 107.636C39.0621 106.881 38.9812 106.237 38.8192 105.706C38.6602 105.175 38.43 104.77 38.1289 104.491C37.8306 104.213 37.4712 104.074 37.0508 104.074C36.4201 104.074 35.9272 104.385 35.5721 105.007C35.217 105.626 35.0394 106.503 35.0394 107.636C35.0394 108.392 35.119 109.034 35.2781 109.562C35.4371 110.091 35.6658 110.493 35.9641 110.768C36.2653 111.044 36.6275 111.182 37.0508 111.182Z" fill="white" fill-opacity="0.8"/>
<path d="M26.9034 154V153.233L29.7841 150.08C30.1222 149.71 30.4006 149.389 30.6193 149.116C30.8381 148.841 31 148.582 31.1051 148.341C31.2131 148.097 31.267 147.841 31.267 147.574C31.267 147.267 31.1932 147.001 31.0455 146.777C30.9006 146.553 30.7017 146.379 30.4489 146.257C30.196 146.135 29.9119 146.074 29.5966 146.074C29.2614 146.074 28.9688 146.143 28.7188 146.283C28.4716 146.419 28.2798 146.611 28.1435 146.858C28.0099 147.105 27.9432 147.395 27.9432 147.727H26.9375C26.9375 147.216 27.0554 146.767 27.2912 146.381C27.527 145.994 27.848 145.693 28.2543 145.477C28.6634 145.261 29.1222 145.153 29.6307 145.153C30.142 145.153 30.5952 145.261 30.9901 145.477C31.3849 145.693 31.6946 145.984 31.919 146.351C32.1435 146.717 32.2557 147.125 32.2557 147.574C32.2557 147.895 32.1974 148.209 32.081 148.516C31.9673 148.82 31.7685 149.159 31.4844 149.534C31.2031 149.906 30.8125 150.361 30.3125 150.898L28.3523 152.994V153.062H32.4091V154H26.9034ZM36.8963 154.119C36.3963 154.119 35.946 154.02 35.5455 153.821C35.1449 153.622 34.8239 153.349 34.5824 153.003C34.3409 152.656 34.2088 152.261 34.1861 151.818H35.2088C35.2486 152.213 35.4276 152.54 35.7457 152.798C36.0668 153.054 36.4503 153.182 36.8963 153.182C37.2543 153.182 37.5724 153.098 37.8509 152.93C38.1321 152.763 38.3523 152.533 38.5114 152.24C38.6733 151.945 38.7543 151.611 38.7543 151.239C38.7543 150.858 38.6705 150.518 38.5028 150.22C38.3381 149.919 38.1108 149.682 37.821 149.509C37.5313 149.335 37.2003 149.247 36.8281 149.244C36.5611 149.241 36.2869 149.283 36.0057 149.368C35.7244 149.45 35.4929 149.557 35.3111 149.688L34.3224 149.568L34.8509 145.273H39.3849V146.21H35.7372L35.4304 148.784H35.4815C35.6605 148.642 35.8849 148.524 36.1548 148.43C36.4247 148.337 36.706 148.29 36.9986 148.29C37.5327 148.29 38.0085 148.418 38.4261 148.673C38.8466 148.926 39.1761 149.273 39.4148 149.713C39.6562 150.153 39.777 150.656 39.777 151.222C39.777 151.778 39.652 152.276 39.402 152.713C39.1548 153.148 38.8139 153.491 38.3793 153.744C37.9446 153.994 37.4503 154.119 36.8963 154.119Z" fill="white" fill-opacity="0.8"/>
<path d="M36.75 196.119C36.108 196.119 35.5611 195.945 35.1094 195.595C34.6577 195.243 34.3125 194.733 34.0739 194.065C33.8352 193.395 33.7159 192.585 33.7159 191.636C33.7159 190.693 33.8352 189.888 34.0739 189.22C34.3153 188.55 34.6619 188.038 35.1136 187.686C35.5682 187.331 36.1136 187.153 36.75 187.153C37.3864 187.153 37.9304 187.331 38.3821 187.686C38.8366 188.038 39.1832 188.55 39.4219 189.22C39.6634 189.888 39.7841 190.693 39.7841 191.636C39.7841 192.585 39.6648 193.395 39.4261 194.065C39.1875 194.733 38.8423 195.243 38.3906 195.595C37.9389 195.945 37.392 196.119 36.75 196.119ZM36.75 195.182C37.3864 195.182 37.8807 194.875 38.233 194.261C38.5852 193.648 38.7614 192.773 38.7614 191.636C38.7614 190.881 38.6804 190.237 38.5185 189.706C38.3594 189.175 38.1293 188.77 37.8281 188.491C37.5298 188.213 37.1705 188.074 36.75 188.074C36.1193 188.074 35.6264 188.385 35.2713 189.007C34.9162 189.626 34.7386 190.503 34.7386 191.636C34.7386 192.392 34.8182 193.034 34.9773 193.562C35.1364 194.091 35.3651 194.493 35.6634 194.768C35.9645 195.044 36.3267 195.182 36.75 195.182Z" fill="white" fill-opacity="0.8"/>
<line x1="46" y1="21.5" x2="321" y2="21.5" stroke="#D9D9FF" stroke-opacity="0.25" stroke-dasharray="2"/>
<line x1="46" y1="64.25" x2="321" y2="64.25" stroke="#D9D9FF" stroke-opacity="0.25" stroke-dasharray="2"/>
<line x1="46" y1="107" x2="321" y2="107" stroke="#D9D9FF" stroke-opacity="0.25" stroke-dasharray="2"/>
<line x1="46" y1="149.75" x2="321" y2="149.75" stroke="#D9D9FF" stroke-opacity="0.25" stroke-dasharray="2"/>
<line x1="46" y1="192.5" x2="321" y2="192.5" stroke="#D9D9FF" stroke-opacity="0.5"/>
<path d="M79.625 175.1C68.0833 175.1 68.0833 169.675 56.5416 169.675V192H310.458V101.636C298.917 101.636 298.917 98.5093 287.375 98.5093C275.833 98.5093 275.833 110.086 264.292 110.086C252.75 110.086 252.75 125.042 241.208 125.042C229.667 125.042 229.667 129.301 218.125 129.301C206.583 129.301 206.583 127.02 195.042 127.02C183.5 127.02 183.5 146.776 171.958 146.776C160.417 146.776 160.417 137.531 148.875 137.531C137.333 137.531 137.333 156.459 125.792 156.459C114.25 156.459 114.25 152.944 102.708 152.944C91.1666 152.944 91.1666 175.1 79.625 175.1Z" fill="url(#paint0_linear_188_1004)"/>
<g filter="url(#filter0_ddd_188_1004)">
<path d="M56.5416 169.675C68.0833 169.675 68.0833 175.1 79.625 175.1C91.1666 175.1 91.1666 152.944 102.708 152.944C114.25 152.944 114.25 156.459 125.792 156.459C137.333 156.459 137.333 137.531 148.875 137.531C160.417 137.531 160.417 146.776 171.958 146.776C183.5 146.776 183.5 127.02 195.042 127.02C206.583 127.02 206.583 129.301 218.125 129.301C229.667 129.301 229.667 125.042 241.208 125.042C252.75 125.042 252.75 110.086 264.292 110.086C275.833 110.086 275.833 98.5093 287.375 98.5093C298.917 98.5093 298.917 101.636 310.458 101.636M310.458 101.636V101.636Z" stroke="#1F94F3"/>
</g>
<path d="M53.7526 209.119C53.1106 209.119 52.5637 208.945 52.112 208.595C51.6603 208.243 51.3151 207.733 51.0765 207.065C50.8378 206.395 50.7185 205.585 50.7185 204.636C50.7185 203.693 50.8378 202.888 51.0765 202.22C51.3179 201.55 51.6645 201.038 52.1162 200.686C52.5708 200.331 53.1162 200.153 53.7526 200.153C54.389 200.153 54.933 200.331 55.3847 200.686C55.8393 201.038 56.1858 201.55 56.4245 202.22C56.666 202.888 56.7867 203.693 56.7867 204.636C56.7867 205.585 56.6674 206.395 56.4287 207.065C56.1901 207.733 55.8449 208.243 55.3932 208.595C54.9415 208.945 54.3946 209.119 53.7526 209.119ZM53.7526 208.182C54.389 208.182 54.8833 207.875 55.2356 207.261C55.5878 206.648 55.764 205.773 55.764 204.636C55.764 203.881 55.683 203.237 55.5211 202.706C55.362 202.175 55.1319 201.77 54.8307 201.491C54.5324 201.213 54.1731 201.074 53.7526 201.074C53.1219 201.074 52.629 201.385 52.2739 202.007C51.9188 202.626 51.7412 203.503 51.7412 204.636C51.7412 205.392 51.8208 206.034 51.9799 206.562C52.139 207.091 52.3677 207.493 52.666 207.768C52.9671 208.044 53.3293 208.182 53.7526 208.182ZM61.4742 200.273V209H60.4174V201.381H60.3662L58.2356 202.795V201.722L60.4174 200.273H61.4742Z" fill="white" fill-opacity="0.8"/>
<path d="M75.9922 209.119C75.3502 209.119 74.8033 208.945 74.3516 208.595C73.8999 208.243 73.5547 207.733 73.3161 207.065C73.0775 206.395 72.9581 205.585 72.9581 204.636C72.9581 203.693 73.0775 202.888 73.3161 202.22C73.5576 201.55 73.9042 201.038 74.3559 200.686C74.8104 200.331 75.3559 200.153 75.9922 200.153C76.6286 200.153 77.1726 200.331 77.6243 200.686C78.0789 201.038 78.4255 201.55 78.6641 202.22C78.9056 202.888 79.0263 203.693 79.0263 204.636C79.0263 205.585 78.907 206.395 78.6684 207.065C78.4297 207.733 78.0846 208.243 77.6329 208.595C77.1811 208.945 76.6343 209.119 75.9922 209.119ZM75.9922 208.182C76.6286 208.182 77.1229 207.875 77.4752 207.261C77.8275 206.648 78.0036 205.773 78.0036 204.636C78.0036 203.881 77.9226 203.237 77.7607 202.706C77.6016 202.175 77.3715 201.77 77.0704 201.491C76.7721 201.213 76.4127 201.074 75.9922 201.074C75.3615 201.074 74.8686 201.385 74.5135 202.007C74.1584 202.626 73.9809 203.503 73.9809 204.636C73.9809 205.392 74.0604 206.034 74.2195 206.562C74.3786 207.091 74.6073 207.493 74.9056 207.768C75.2067 208.044 75.5689 208.182 75.9922 208.182ZM80.6456 209V208.233L83.5263 205.08C83.8644 204.71 84.1428 204.389 84.3615 204.116C84.5803 203.841 84.7422 203.582 84.8473 203.341C84.9553 203.097 85.0093 202.841 85.0093 202.574C85.0093 202.267 84.9354 202.001 84.7877 201.777C84.6428 201.553 84.4439 201.379 84.1911 201.257C83.9383 201.135 83.6542 201.074 83.3388 201.074C83.0036 201.074 82.711 201.143 82.461 201.283C82.2138 201.419 82.0221 201.611 81.8857 201.858C81.7522 202.105 81.6854 202.395 81.6854 202.727H80.6797C80.6797 202.216 80.7976 201.767 81.0334 201.381C81.2692 200.994 81.5902 200.693 81.9965 200.477C82.4056 200.261 82.8644 200.153 83.3729 200.153C83.8843 200.153 84.3374 200.261 84.7323 200.477C85.1272 200.693 85.4368 200.984 85.6613 201.351C85.8857 201.717 85.9979 202.125 85.9979 202.574C85.9979 202.895 85.9397 203.209 85.8232 203.516C85.7096 203.82 85.5107 204.159 85.2266 204.534C84.9454 204.906 84.5547 205.361 84.0547 205.898L82.0945 207.994V208.062H86.1513V209H80.6456Z" fill="white" fill-opacity="0.8"/>
<path d="M98.888 209.119C98.2459 209.119 97.6991 208.945 97.2474 208.595C96.7957 208.243 96.4505 207.733 96.2118 207.065C95.9732 206.395 95.8539 205.585 95.8539 204.636C95.8539 203.693 95.9732 202.888 96.2118 202.22C96.4533 201.55 96.7999 201.038 97.2516 200.686C97.7062 200.331 98.2516 200.153 98.888 200.153C99.5243 200.153 100.068 200.331 100.52 200.686C100.975 201.038 101.321 201.55 101.56 202.22C101.801 202.888 101.922 203.693 101.922 204.636C101.922 205.585 101.803 206.395 101.564 207.065C101.325 207.733 100.98 208.243 100.529 208.595C100.077 208.945 99.53 209.119 98.888 209.119ZM98.888 208.182C99.5243 208.182 100.019 207.875 100.371 207.261C100.723 206.648 100.899 205.773 100.899 204.636C100.899 203.881 100.818 203.237 100.656 202.706C100.497 202.175 100.267 201.77 99.9661 201.491C99.6678 201.213 99.3084 201.074 98.888 201.074C98.2573 201.074 97.7644 201.385 97.4093 202.007C97.0542 202.626 96.8766 203.503 96.8766 204.636C96.8766 205.392 96.9562 206.034 97.1153 206.562C97.2743 207.091 97.503 207.493 97.8013 207.768C98.1025 208.044 98.4647 208.182 98.888 208.182ZM106.49 209.119C105.928 209.119 105.426 209.023 104.986 208.83C104.548 208.636 104.2 208.368 103.942 208.024C103.686 207.678 103.547 207.276 103.524 206.818H104.598C104.621 207.099 104.718 207.342 104.888 207.547C105.058 207.749 105.281 207.905 105.557 208.016C105.833 208.126 106.138 208.182 106.473 208.182C106.848 208.182 107.181 208.116 107.47 207.986C107.76 207.855 107.987 207.673 108.152 207.44C108.317 207.207 108.399 206.938 108.399 206.631C108.399 206.31 108.32 206.027 108.161 205.783C108.002 205.536 107.769 205.342 107.462 205.203C107.155 205.064 106.78 204.994 106.337 204.994H105.638V204.057H106.337C106.683 204.057 106.987 203.994 107.249 203.869C107.513 203.744 107.719 203.568 107.867 203.341C108.017 203.114 108.093 202.847 108.093 202.54C108.093 202.244 108.027 201.987 107.897 201.768C107.766 201.55 107.581 201.379 107.343 201.257C107.107 201.135 106.828 201.074 106.507 201.074C106.206 201.074 105.922 201.129 105.655 201.24C105.391 201.348 105.175 201.506 105.007 201.713C104.84 201.918 104.749 202.165 104.735 202.455H103.712C103.729 201.997 103.867 201.597 104.125 201.253C104.384 200.906 104.722 200.636 105.139 200.443C105.56 200.25 106.022 200.153 106.524 200.153C107.064 200.153 107.527 200.263 107.914 200.482C108.3 200.697 108.597 200.983 108.804 201.338C109.012 201.693 109.115 202.077 109.115 202.489C109.115 202.98 108.986 203.399 108.727 203.746C108.472 204.092 108.124 204.332 107.683 204.466V204.534C108.235 204.625 108.665 204.859 108.975 205.237C109.284 205.612 109.439 206.077 109.439 206.631C109.439 207.105 109.31 207.531 109.051 207.909C108.796 208.284 108.446 208.58 108.003 208.795C107.56 209.011 107.056 209.119 106.49 209.119Z" fill="white" fill-opacity="0.8"/>
<path d="M121.942 209.119C121.3 209.119 120.753 208.945 120.301 208.595C119.85 208.243 119.505 207.733 119.266 207.065C119.027 206.395 118.908 205.585 118.908 204.636C118.908 203.693 119.027 202.888 119.266 202.22C119.507 201.55 119.854 201.038 120.306 200.686C120.76 200.331 121.306 200.153 121.942 200.153C122.578 200.153 123.122 200.331 123.574 200.686C124.029 201.038 124.375 201.55 124.614 202.22C124.855 202.888 124.976 203.693 124.976 204.636C124.976 205.585 124.857 206.395 124.618 207.065C124.38 207.733 124.034 208.243 123.583 208.595C123.131 208.945 122.584 209.119 121.942 209.119ZM121.942 208.182C122.578 208.182 123.073 207.875 123.425 207.261C123.777 206.648 123.953 205.773 123.953 204.636C123.953 203.881 123.872 203.237 123.711 202.706C123.551 202.175 123.321 201.77 123.02 201.491C122.722 201.213 122.363 201.074 121.942 201.074C121.311 201.074 120.818 201.385 120.463 202.007C120.108 202.626 119.931 203.503 119.931 204.636C119.931 205.392 120.01 206.034 120.169 206.562C120.328 207.091 120.557 207.493 120.855 207.768C121.157 208.044 121.519 208.182 121.942 208.182ZM126.391 207.21V206.341L130.226 200.273H130.857V201.619H130.431L127.533 206.205V206.273H132.698V207.21H126.391ZM130.499 209V206.946V206.541V200.273H131.505V209H130.499Z" fill="white" fill-opacity="0.8"/>
<path d="M145.225 209.119C144.583 209.119 144.036 208.945 143.584 208.595C143.132 208.243 142.787 207.733 142.549 207.065C142.31 206.395 142.191 205.585 142.191 204.636C142.191 203.693 142.31 202.888 142.549 202.22C142.79 201.55 143.137 201.038 143.588 200.686C144.043 200.331 144.588 200.153 145.225 200.153C145.861 200.153 146.405 200.331 146.857 200.686C147.311 201.038 147.658 201.55 147.897 202.22C148.138 202.888 148.259 203.693 148.259 204.636C148.259 205.585 148.139 206.395 147.901 207.065C147.662 207.733 147.317 208.243 146.865 208.595C146.414 208.945 145.867 209.119 145.225 209.119ZM145.225 208.182C145.861 208.182 146.355 207.875 146.708 207.261C147.06 206.648 147.236 205.773 147.236 204.636C147.236 203.881 147.155 203.237 146.993 202.706C146.834 202.175 146.604 201.77 146.303 201.491C146.004 201.213 145.645 201.074 145.225 201.074C144.594 201.074 144.101 201.385 143.746 202.007C143.391 202.626 143.213 203.503 143.213 204.636C143.213 205.392 143.293 206.034 143.452 206.562C143.611 207.091 143.84 207.493 144.138 207.768C144.439 208.044 144.801 208.182 145.225 208.182ZM152.605 209.119C152.105 209.119 151.655 209.02 151.254 208.821C150.854 208.622 150.533 208.349 150.291 208.003C150.05 207.656 149.918 207.261 149.895 206.818H150.918C150.958 207.213 151.137 207.54 151.455 207.798C151.776 208.054 152.159 208.182 152.605 208.182C152.963 208.182 153.281 208.098 153.56 207.93C153.841 207.763 154.061 207.533 154.22 207.24C154.382 206.945 154.463 206.611 154.463 206.239C154.463 205.858 154.379 205.518 154.212 205.22C154.047 204.919 153.82 204.682 153.53 204.509C153.24 204.335 152.909 204.247 152.537 204.244C152.27 204.241 151.996 204.283 151.715 204.368C151.433 204.45 151.202 204.557 151.02 204.688L150.031 204.568L150.56 200.273H155.094V201.21H151.446L151.139 203.784H151.191C151.37 203.642 151.594 203.524 151.864 203.43C152.134 203.337 152.415 203.29 152.708 203.29C153.242 203.29 153.718 203.418 154.135 203.673C154.556 203.926 154.885 204.273 155.124 204.713C155.365 205.153 155.486 205.656 155.486 206.222C155.486 206.778 155.361 207.276 155.111 207.713C154.864 208.148 154.523 208.491 154.088 208.744C153.654 208.994 153.159 209.119 152.605 209.119Z" fill="white" fill-opacity="0.8"/>
<path d="M168.214 209.119C167.572 209.119 167.025 208.945 166.574 208.595C166.122 208.243 165.777 207.733 165.538 207.065C165.3 206.395 165.18 205.585 165.18 204.636C165.18 203.693 165.3 202.888 165.538 202.22C165.78 201.55 166.126 201.038 166.578 200.686C167.032 200.331 167.578 200.153 168.214 200.153C168.851 200.153 169.395 200.331 169.846 200.686C170.301 201.038 170.648 201.55 170.886 202.22C171.128 202.888 171.248 203.693 171.248 204.636C171.248 205.585 171.129 206.395 170.89 207.065C170.652 207.733 170.307 208.243 169.855 208.595C169.403 208.945 168.856 209.119 168.214 209.119ZM168.214 208.182C168.851 208.182 169.345 207.875 169.697 207.261C170.05 206.648 170.226 205.773 170.226 204.636C170.226 203.881 170.145 203.237 169.983 202.706C169.824 202.175 169.594 201.77 169.292 201.491C168.994 201.213 168.635 201.074 168.214 201.074C167.584 201.074 167.091 201.385 166.736 202.007C166.38 202.626 166.203 203.503 166.203 204.636C166.203 205.392 166.282 206.034 166.442 206.562C166.601 207.091 166.829 207.493 167.128 207.768C167.429 208.044 167.791 208.182 168.214 208.182ZM175.765 209.119C175.407 209.114 175.05 209.045 174.692 208.915C174.334 208.784 174.007 208.564 173.711 208.254C173.416 207.942 173.179 207.52 173 206.989C172.821 206.455 172.731 205.784 172.731 204.977C172.731 204.205 172.804 203.52 172.949 202.923C173.094 202.324 173.304 201.82 173.579 201.411C173.855 200.999 174.187 200.686 174.576 200.473C174.969 200.26 175.41 200.153 175.902 200.153C176.39 200.153 176.825 200.251 177.206 200.447C177.589 200.641 177.902 200.911 178.143 201.257C178.385 201.604 178.541 202.003 178.612 202.455H177.572C177.476 202.062 177.288 201.737 177.01 201.479C176.731 201.22 176.362 201.091 175.902 201.091C175.226 201.091 174.693 201.385 174.304 201.973C173.917 202.561 173.723 203.386 173.72 204.449H173.788C173.947 204.207 174.136 204.001 174.355 203.831C174.576 203.658 174.821 203.524 175.088 203.43C175.355 203.337 175.638 203.29 175.936 203.29C176.436 203.29 176.893 203.415 177.308 203.665C177.723 203.912 178.055 204.254 178.305 204.692C178.555 205.126 178.68 205.625 178.68 206.188C178.68 206.727 178.559 207.222 178.318 207.67C178.076 208.116 177.737 208.472 177.3 208.736C176.865 208.997 176.353 209.125 175.765 209.119ZM175.765 208.182C176.123 208.182 176.444 208.092 176.728 207.913C177.015 207.734 177.241 207.494 177.406 207.193C177.574 206.892 177.657 206.557 177.657 206.188C177.657 205.827 177.576 205.499 177.415 205.203C177.255 204.905 177.035 204.668 176.754 204.491C176.476 204.315 176.157 204.227 175.8 204.227C175.53 204.227 175.278 204.281 175.045 204.389C174.812 204.494 174.608 204.639 174.432 204.824C174.258 205.009 174.122 205.22 174.023 205.459C173.923 205.695 173.873 205.943 173.873 206.205C173.873 206.551 173.954 206.875 174.116 207.176C174.281 207.477 174.505 207.72 174.79 207.905C175.076 208.089 175.402 208.182 175.765 208.182Z" fill="white" fill-opacity="0.8"/>
<path d="M191.731 209.119C191.089 209.119 190.542 208.945 190.09 208.595C189.639 208.243 189.294 207.733 189.055 207.065C188.816 206.395 188.697 205.585 188.697 204.636C188.697 203.693 188.816 202.888 189.055 202.22C189.296 201.55 189.643 201.038 190.095 200.686C190.549 200.331 191.095 200.153 191.731 200.153C192.367 200.153 192.912 200.331 193.363 200.686C193.818 201.038 194.164 201.55 194.403 202.22C194.644 202.888 194.765 203.693 194.765 204.636C194.765 205.585 194.646 206.395 194.407 207.065C194.169 207.733 193.823 208.243 193.372 208.595C192.92 208.945 192.373 209.119 191.731 209.119ZM191.731 208.182C192.367 208.182 192.862 207.875 193.214 207.261C193.566 206.648 193.742 205.773 193.742 204.636C193.742 203.881 193.662 203.237 193.5 202.706C193.34 202.175 193.11 201.77 192.809 201.491C192.511 201.213 192.152 201.074 191.731 201.074C191.1 201.074 190.608 201.385 190.252 202.007C189.897 202.626 189.72 203.503 189.72 204.636C189.72 205.392 189.799 206.034 189.958 206.562C190.117 207.091 190.346 207.493 190.644 207.768C190.946 208.044 191.308 208.182 191.731 208.182ZM196.423 209L200.326 201.278V201.21H195.826V200.273H201.417V201.261L197.531 209H196.423Z" fill="white" fill-opacity="0.8"/>
<path d="M214.428 209.119C213.786 209.119 213.239 208.945 212.787 208.595C212.335 208.243 211.99 207.733 211.752 207.065C211.513 206.395 211.394 205.585 211.394 204.636C211.394 203.693 211.513 202.888 211.752 202.22C211.993 201.55 212.34 201.038 212.791 200.686C213.246 200.331 213.791 200.153 214.428 200.153C215.064 200.153 215.608 200.331 216.06 200.686C216.514 201.038 216.861 201.55 217.1 202.22C217.341 202.888 217.462 203.693 217.462 204.636C217.462 205.585 217.343 206.395 217.104 207.065C216.865 207.733 216.52 208.243 216.068 208.595C215.617 208.945 215.07 209.119 214.428 209.119ZM214.428 208.182C215.064 208.182 215.558 207.875 215.911 207.261C216.263 206.648 216.439 205.773 216.439 204.636C216.439 203.881 216.358 203.237 216.196 202.706C216.037 202.175 215.807 201.77 215.506 201.491C215.208 201.213 214.848 201.074 214.428 201.074C213.797 201.074 213.304 201.385 212.949 202.007C212.594 202.626 212.416 203.503 212.416 204.636C212.416 205.392 212.496 206.034 212.655 206.562C212.814 207.091 213.043 207.493 213.341 207.768C213.642 208.044 214.004 208.182 214.428 208.182ZM221.877 209.119C221.291 209.119 220.774 209.016 220.326 208.808C219.879 208.598 219.531 208.31 219.281 207.943C219.031 207.574 218.908 207.153 218.911 206.682C218.908 206.312 218.98 205.972 219.128 205.659C219.276 205.344 219.477 205.081 219.733 204.871C219.992 204.658 220.28 204.523 220.598 204.466V204.415C220.181 204.307 219.848 204.072 219.601 203.712C219.354 203.348 219.232 202.935 219.235 202.472C219.232 202.028 219.344 201.632 219.571 201.283C219.799 200.933 220.111 200.658 220.509 200.456C220.909 200.254 221.365 200.153 221.877 200.153C222.382 200.153 222.834 200.254 223.232 200.456C223.629 200.658 223.942 200.933 224.169 201.283C224.399 201.632 224.516 202.028 224.519 202.472C224.516 202.935 224.389 203.348 224.139 203.712C223.892 204.072 223.564 204.307 223.155 204.415V204.466C223.47 204.523 223.754 204.658 224.007 204.871C224.26 205.081 224.462 205.344 224.612 205.659C224.763 205.972 224.84 206.312 224.843 206.682C224.84 207.153 224.712 207.574 224.459 207.943C224.209 208.31 223.861 208.598 223.415 208.808C222.972 209.016 222.459 209.119 221.877 209.119ZM221.877 208.182C222.272 208.182 222.612 208.118 222.899 207.99C223.186 207.862 223.408 207.682 223.564 207.449C223.72 207.216 223.8 206.943 223.803 206.631C223.8 206.301 223.715 206.01 223.547 205.757C223.379 205.504 223.151 205.305 222.861 205.161C222.574 205.016 222.246 204.943 221.877 204.943C221.504 204.943 221.172 205.016 220.879 205.161C220.59 205.305 220.361 205.504 220.193 205.757C220.029 206.01 219.948 206.301 219.951 206.631C219.948 206.943 220.023 207.216 220.176 207.449C220.333 207.682 220.556 207.862 220.845 207.99C221.135 208.118 221.479 208.182 221.877 208.182ZM221.877 204.04C222.189 204.04 222.466 203.977 222.708 203.852C222.952 203.727 223.144 203.553 223.283 203.328C223.422 203.104 223.493 202.841 223.496 202.54C223.493 202.244 223.424 201.987 223.287 201.768C223.151 201.547 222.962 201.376 222.72 201.257C222.479 201.135 222.198 201.074 221.877 201.074C221.55 201.074 221.264 201.135 221.02 201.257C220.776 201.376 220.587 201.547 220.453 201.768C220.32 201.987 220.254 202.244 220.257 202.54C220.254 202.841 220.321 203.104 220.458 203.328C220.597 203.553 220.789 203.727 221.033 203.852C221.277 203.977 221.558 204.04 221.877 204.04Z" fill="white" fill-opacity="0.8"/>
<path d="M237.464 209.119C236.822 209.119 236.275 208.945 235.824 208.595C235.372 208.243 235.027 207.733 234.788 207.065C234.55 206.395 234.43 205.585 234.43 204.636C234.43 203.693 234.55 202.888 234.788 202.22C235.03 201.55 235.376 201.038 235.828 200.686C236.282 200.331 236.828 200.153 237.464 200.153C238.101 200.153 238.645 200.331 239.096 200.686C239.551 201.038 239.898 201.55 240.136 202.22C240.378 202.888 240.498 203.693 240.498 204.636C240.498 205.585 240.379 206.395 240.14 207.065C239.902 207.733 239.557 208.243 239.105 208.595C238.653 208.945 238.106 209.119 237.464 209.119ZM237.464 208.182C238.101 208.182 238.595 207.875 238.947 207.261C239.3 206.648 239.476 205.773 239.476 204.636C239.476 203.881 239.395 203.237 239.233 202.706C239.074 202.175 238.844 201.77 238.542 201.491C238.244 201.213 237.885 201.074 237.464 201.074C236.834 201.074 236.341 201.385 235.986 202.007C235.63 202.626 235.453 203.503 235.453 204.636C235.453 205.392 235.532 206.034 235.692 206.562C235.851 207.091 236.079 207.493 236.378 207.768C236.679 208.044 237.041 208.182 237.464 208.182ZM244.896 200.153C245.254 200.156 245.612 200.224 245.97 200.358C246.328 200.491 246.655 200.713 246.95 201.023C247.246 201.33 247.483 201.749 247.662 202.28C247.841 202.811 247.93 203.477 247.93 204.278C247.93 205.054 247.856 205.743 247.709 206.345C247.564 206.945 247.353 207.45 247.078 207.862C246.805 208.274 246.473 208.587 246.081 208.8C245.692 209.013 245.251 209.119 244.76 209.119C244.271 209.119 243.835 209.023 243.451 208.83C243.071 208.634 242.758 208.362 242.514 208.016C242.273 207.666 242.118 207.261 242.05 206.801H243.089C243.183 207.202 243.369 207.533 243.648 207.794C243.929 208.053 244.3 208.182 244.76 208.182C245.433 208.182 245.964 207.888 246.353 207.3C246.746 206.712 246.942 205.881 246.942 204.807H246.873C246.714 205.045 246.525 205.251 246.307 205.425C246.088 205.598 245.845 205.732 245.578 205.825C245.311 205.919 245.027 205.966 244.726 205.966C244.226 205.966 243.767 205.842 243.349 205.595C242.934 205.345 242.602 205.003 242.352 204.568C242.105 204.131 241.981 203.631 241.981 203.068C241.981 202.534 242.101 202.045 242.339 201.602C242.581 201.156 242.919 200.801 243.353 200.537C243.791 200.273 244.305 200.145 244.896 200.153ZM244.896 201.091C244.538 201.091 244.216 201.18 243.929 201.359C243.645 201.536 243.419 201.774 243.251 202.075C243.086 202.374 243.004 202.705 243.004 203.068C243.004 203.432 243.084 203.763 243.243 204.061C243.405 204.357 243.625 204.592 243.903 204.768C244.184 204.942 244.504 205.028 244.862 205.028C245.132 205.028 245.383 204.976 245.616 204.871C245.849 204.763 246.052 204.616 246.226 204.432C246.402 204.244 246.54 204.033 246.639 203.797C246.738 203.558 246.788 203.31 246.788 203.051C246.788 202.71 246.706 202.391 246.541 202.092C246.379 201.794 246.155 201.553 245.868 201.368C245.584 201.183 245.26 201.091 244.896 201.091Z" fill="white" fill-opacity="0.8"/>
<path d="M261.724 200.273V209H260.667V201.381H260.616L258.486 202.795V201.722L260.667 200.273H261.724ZM267.081 209.119C266.439 209.119 265.892 208.945 265.44 208.595C264.988 208.243 264.643 207.733 264.405 207.065C264.166 206.395 264.047 205.585 264.047 204.636C264.047 203.693 264.166 202.888 264.405 202.22C264.646 201.55 264.993 201.038 265.444 200.686C265.899 200.331 266.444 200.153 267.081 200.153C267.717 200.153 268.261 200.331 268.713 200.686C269.167 201.038 269.514 201.55 269.753 202.22C269.994 202.888 270.115 203.693 270.115 204.636C270.115 205.585 269.996 206.395 269.757 207.065C269.518 207.733 269.173 208.243 268.721 208.595C268.27 208.945 267.723 209.119 267.081 209.119ZM267.081 208.182C267.717 208.182 268.211 207.875 268.564 207.261C268.916 206.648 269.092 205.773 269.092 204.636C269.092 203.881 269.011 203.237 268.849 202.706C268.69 202.175 268.46 201.77 268.159 201.491C267.861 201.213 267.501 201.074 267.081 201.074C266.45 201.074 265.957 201.385 265.602 202.007C265.247 202.626 265.069 203.503 265.069 204.636C265.069 205.392 265.149 206.034 265.308 206.562C265.467 207.091 265.696 207.493 265.994 207.768C266.295 208.044 266.657 208.182 267.081 208.182Z" fill="white" fill-opacity="0.8"/>
<path d="M285.769 200.273V209H284.712V201.381H284.661L282.53 202.795V201.722L284.712 200.273H285.769ZM291.347 200.273V209H290.29V201.381H290.239L288.108 202.795V201.722L290.29 200.273H291.347Z" fill="white" fill-opacity="0.8"/>
<path d="M308.008 200.273V209H306.951V201.381H306.9L304.769 202.795V201.722L306.951 200.273H308.008ZM310.518 209V208.233L313.399 205.08C313.737 204.71 314.015 204.389 314.234 204.116C314.453 203.841 314.615 203.582 314.72 203.341C314.828 203.097 314.882 202.841 314.882 202.574C314.882 202.267 314.808 202.001 314.66 201.777C314.515 201.553 314.316 201.379 314.064 201.257C313.811 201.135 313.527 201.074 313.211 201.074C312.876 201.074 312.583 201.143 312.333 201.283C312.086 201.419 311.894 201.611 311.758 201.858C311.625 202.105 311.558 202.395 311.558 202.727H310.552C310.552 202.216 310.67 201.767 310.906 201.381C311.142 200.994 311.463 200.693 311.869 200.477C312.278 200.261 312.737 200.153 313.245 200.153C313.757 200.153 314.21 200.261 314.605 200.477C315 200.693 315.309 200.984 315.534 201.351C315.758 201.717 315.87 202.125 315.87 202.574C315.87 202.895 315.812 203.209 315.696 203.516C315.582 203.82 315.383 204.159 315.099 204.534C314.818 204.906 314.427 205.361 313.927 205.898L311.967 207.994V208.062H316.024V209H310.518Z" fill="white" fill-opacity="0.8"/>
<rect x="138.5" y="231" width="16" height="2" fill="#1F94F3"/>
<path d="M164.773 229.955L162.352 236.5H161.33L158.909 229.955H160L161.807 235.17H161.875L163.682 229.955H164.773ZM168.525 236.636C167.934 236.636 167.415 236.496 166.969 236.214C166.526 235.933 166.18 235.54 165.93 235.034C165.683 234.528 165.559 233.937 165.559 233.261C165.559 232.58 165.683 231.984 165.93 231.476C166.18 230.967 166.526 230.572 166.969 230.291C167.415 230.01 167.934 229.869 168.525 229.869C169.116 229.869 169.633 230.01 170.076 230.291C170.522 230.572 170.869 230.967 171.116 231.476C171.366 231.984 171.491 232.58 171.491 233.261C171.491 233.937 171.366 234.528 171.116 235.034C170.869 235.54 170.522 235.933 170.076 236.214C169.633 236.496 169.116 236.636 168.525 236.636ZM168.525 235.733C168.974 235.733 169.343 235.618 169.633 235.388C169.923 235.158 170.137 234.855 170.276 234.48C170.415 234.105 170.485 233.699 170.485 233.261C170.485 232.824 170.415 232.416 170.276 232.038C170.137 231.661 169.923 231.355 169.633 231.122C169.343 230.889 168.974 230.773 168.525 230.773C168.076 230.773 167.707 230.889 167.417 231.122C167.127 231.355 166.913 231.661 166.773 232.038C166.634 232.416 166.565 232.824 166.565 233.261C166.565 233.699 166.634 234.105 166.773 234.48C166.913 234.855 167.127 235.158 167.417 235.388C167.707 235.618 168.076 235.733 168.525 235.733ZM174.032 227.773V236.5H173.026V227.773H174.032ZM179.999 233.824V229.955H181.004V236.5H179.999V235.392H179.93C179.777 235.724 179.538 236.007 179.214 236.24C178.891 236.47 178.482 236.585 177.987 236.585C177.578 236.585 177.214 236.496 176.896 236.317C176.578 236.135 176.328 235.862 176.146 235.499C175.964 235.132 175.874 234.67 175.874 234.114V229.955H176.879V234.045C176.879 234.523 177.013 234.903 177.28 235.188C177.55 235.472 177.893 235.614 178.311 235.614C178.561 235.614 178.815 235.55 179.074 235.422C179.335 235.294 179.554 235.098 179.73 234.834C179.909 234.57 179.999 234.233 179.999 233.824ZM182.846 236.5V229.955H183.818V230.977H183.903C184.039 230.628 184.26 230.357 184.564 230.163C184.868 229.967 185.233 229.869 185.659 229.869C186.091 229.869 186.45 229.967 186.737 230.163C187.027 230.357 187.252 230.628 187.414 230.977H187.483C187.65 230.639 187.902 230.371 188.237 230.172C188.572 229.97 188.974 229.869 189.443 229.869C190.028 229.869 190.507 230.053 190.879 230.419C191.251 230.783 191.437 231.349 191.437 232.119V236.5H190.431V232.119C190.431 231.636 190.299 231.291 190.035 231.084C189.771 230.876 189.46 230.773 189.102 230.773C188.642 230.773 188.285 230.912 188.032 231.19C187.779 231.466 187.653 231.815 187.653 232.239V236.5H186.63V232.017C186.63 231.645 186.51 231.345 186.268 231.118C186.027 230.888 185.716 230.773 185.335 230.773C185.074 230.773 184.829 230.842 184.602 230.982C184.377 231.121 184.196 231.314 184.056 231.561C183.92 231.805 183.852 232.088 183.852 232.409V236.5H182.846ZM196.02 236.636C195.39 236.636 194.846 236.497 194.388 236.219C193.934 235.938 193.583 235.545 193.336 235.043C193.091 234.537 192.969 233.949 192.969 233.278C192.969 232.608 193.091 232.017 193.336 231.506C193.583 230.991 193.926 230.591 194.367 230.304C194.81 230.014 195.327 229.869 195.918 229.869C196.259 229.869 196.596 229.926 196.928 230.04C197.26 230.153 197.563 230.338 197.836 230.594C198.108 230.847 198.326 231.182 198.488 231.599C198.65 232.017 198.73 232.531 198.73 233.142V233.568H193.685V232.699H197.708C197.708 232.33 197.634 232 197.486 231.71C197.341 231.42 197.134 231.192 196.864 231.024C196.597 230.857 196.282 230.773 195.918 230.773C195.517 230.773 195.171 230.872 194.878 231.071C194.588 231.267 194.365 231.523 194.209 231.838C194.053 232.153 193.975 232.491 193.975 232.852V233.432C193.975 233.926 194.06 234.345 194.23 234.689C194.404 235.03 194.644 235.29 194.951 235.469C195.257 235.645 195.614 235.733 196.02 235.733C196.284 235.733 196.523 235.696 196.736 235.622C196.952 235.545 197.138 235.432 197.294 235.281C197.451 235.128 197.571 234.937 197.657 234.71L198.628 234.983C198.526 235.312 198.354 235.602 198.113 235.852C197.871 236.099 197.573 236.293 197.218 236.432C196.863 236.568 196.463 236.636 196.02 236.636Z" fill="white" fill-opacity="0.8"/>
<defs>
<filter id="filter0_ddd_188_1004" x="38.5416" y="89.0093" width="289.917" height="113.591" filterUnits="userSpaceOnUse" color-interpolation-filters="sRGB">
<feFlood flood-opacity="0" result="BackgroundImageFix"/>
<feColorMatrix in="SourceAlpha" type="matrix" values="0 0 0 0 0 0 0 0 0 0 0 0 0 0 0 0 0 0 127 0" result="hardAlpha"/>
<feOffset dy="3"/>
<feGaussianBlur stdDeviation="1.5"/>
<feColorMatrix type="matrix" values="0 0 0 0 0.117647 0 0 0 0 0.227451 0 0 0 0 0.541176 0 0 0 0.4 0"/>
<feBlend mode="normal" in2="BackgroundImageFix" result="effect1_dropShadow_188_1004"/>
<feColorMatrix in="SourceAlpha" type="matrix" values="0 0 0 0 0 0 0 0 0 0 0 0 0 0 0 0 0 0 127 0" result="hardAlpha"/>
<feOffset dy="6"/>
<feGaussianBlur stdDeviation="4.5"/>
<feColorMatrix type="matrix" values="0 0 0 0 0.117647 0 0 0 0 0.227451 0 0 0 0 0.541176 0 0 0 0.4 0"/>
<feBlend mode="normal" in2="effect1_dropShadow_188_1004" result="effect2_dropShadow_188_1004"/>
<feColorMatrix in="SourceAlpha" type="matrix" values="0 0 0 0 0 0 0 0 0 0 0 0 0 0 0 0 0 0 127 0" result="hardAlpha"/>
<feOffset dy="9"/>
<feGaussianBlur stdDeviation="9"/>
<feColorMatrix type="matrix" values="0 0 0 0 0.117647 0 0 0 0 0.227451 0 0 0 0 0.541176 0 0 0 0.4 0"/>
<feBlend mode="normal" in2="effect2_dropShadow_188_1004" result="effect3_dropShadow_188_1004"/>
<feBlend mode="normal" in="SourceGraphic" in2="effect3_dropShadow_188_1004" result="shape"/>
</filter>
<linearGradient id="paint0_linear_188_1004" x1="183.5" y1="98.5093" x2="183.5" y2="192" gradientUnits="userSpaceOnUse">
<stop stop-color="#1F94F3"/>
<stop offset="1" stop-color="#1E3A8A" stop-opacity="0.05"/>
</linearGradient>
</defs>
</svg>
