<svg width="338" height="266" viewBox="0 0 338 266" fill="none" xmlns="http://www.w3.org/2000/svg">
<rect width="338" height="266" rx="15" fill="#1B1F2A"/>
<path d="M23.9716 19.2727V28H22.9148V20.3807H22.8636L20.733 21.7955V20.7216L22.9148 19.2727H23.9716ZM29.3281 28.1193C28.6861 28.1193 28.1392 27.9446 27.6875 27.5952C27.2358 27.2429 26.8906 26.733 26.652 26.0653C26.4134 25.3949 26.294 24.5852 26.294 23.6364C26.294 22.6932 26.4134 21.8878 26.652 21.2202C26.8935 20.5497 27.2401 20.0384 27.6918 19.6861C28.1463 19.331 28.6918 19.1534 29.3281 19.1534C29.9645 19.1534 30.5085 19.331 30.9602 19.6861C31.4148 20.0384 31.7614 20.5497 32 21.2202C32.2415 21.8878 32.3622 22.6932 32.3622 23.6364C32.3622 24.5852 32.2429 25.3949 32.0043 26.0653C31.7656 26.733 31.4205 27.2429 30.9688 27.5952C30.517 27.9446 29.9702 28.1193 29.3281 28.1193ZM29.3281 27.1818C29.9645 27.1818 30.4588 26.875 30.8111 26.2614C31.1634 25.6477 31.3395 24.7727 31.3395 23.6364C31.3395 22.8807 31.2585 22.2372 31.0966 21.706C30.9375 21.1747 30.7074 20.7699 30.4062 20.4915C30.108 20.2131 29.7486 20.0739 29.3281 20.0739C28.6974 20.0739 28.2045 20.3849 27.8494 21.0071C27.4943 21.6264 27.3168 22.5028 27.3168 23.6364C27.3168 24.392 27.3963 25.0341 27.5554 25.5625C27.7145 26.0909 27.9432 26.4929 28.2415 26.7685C28.5426 27.044 28.9048 27.1818 29.3281 27.1818ZM36.8281 28.1193C36.1861 28.1193 35.6392 27.9446 35.1875 27.5952C34.7358 27.2429 34.3906 26.733 34.152 26.0653C33.9134 25.3949 33.794 24.5852 33.794 23.6364C33.794 22.6932 33.9134 21.8878 34.152 21.2202C34.3935 20.5497 34.7401 20.0384 35.1918 19.6861C35.6463 19.331 36.1918 19.1534 36.8281 19.1534C37.4645 19.1534 38.0085 19.331 38.4602 19.6861C38.9148 20.0384 39.2614 20.5497 39.5 21.2202C39.7415 21.8878 39.8622 22.6932 39.8622 23.6364C39.8622 24.5852 39.7429 25.3949 39.5043 26.0653C39.2656 26.733 38.9205 27.2429 38.4688 27.5952C38.017 27.9446 37.4702 28.1193 36.8281 28.1193ZM36.8281 27.1818C37.4645 27.1818 37.9588 26.875 38.3111 26.2614C38.6634 25.6477 38.8395 24.7727 38.8395 23.6364C38.8395 22.8807 38.7585 22.2372 38.5966 21.706C38.4375 21.1747 38.2074 20.7699 37.9062 20.4915C37.608 20.2131 37.2486 20.0739 36.8281 20.0739C36.1974 20.0739 35.7045 20.3849 35.3494 21.0071C34.9943 21.6264 34.8168 22.5028 34.8168 23.6364C34.8168 24.392 34.8963 25.0341 35.0554 25.5625C35.2145 26.0909 35.4432 26.4929 35.7415 26.7685C36.0426 27.044 36.4048 27.1818 36.8281 27.1818Z" fill="white" fill-opacity="0.8"/>
<path d="M27.1761 69.5L31.0795 61.7784V61.7102H26.5795V60.7727H32.1705V61.7614L28.2841 69.5H27.1761ZM36.369 69.6193C35.869 69.6193 35.4187 69.5199 35.0181 69.321C34.6175 69.1222 34.2965 68.8494 34.055 68.5028C33.8136 68.1562 33.6815 67.7614 33.6587 67.3182H34.6815C34.7212 67.7131 34.9002 68.0398 35.2184 68.2983C35.5394 68.554 35.9229 68.6818 36.369 68.6818C36.7269 68.6818 37.0451 68.598 37.3235 68.4304C37.6048 68.2628 37.8249 68.0327 37.984 67.7401C38.146 67.4446 38.2269 67.1108 38.2269 66.7386C38.2269 66.358 38.1431 66.0185 37.9755 65.7202C37.8107 65.419 37.5835 65.1818 37.2937 65.0085C37.0039 64.8352 36.6729 64.7472 36.3008 64.7443C36.0337 64.7415 35.7596 64.7827 35.4783 64.8679C35.1971 64.9503 34.9656 65.0568 34.7837 65.1875L33.7951 65.0682L34.3235 60.7727H38.8576V61.7102H35.2099L34.9031 64.2841H34.9542C35.1332 64.142 35.3576 64.0241 35.6275 63.9304C35.8974 63.8366 36.1786 63.7898 36.4712 63.7898C37.0053 63.7898 37.4812 63.9176 37.8988 64.1733C38.3192 64.4261 38.6488 64.7727 38.8874 65.2131C39.1289 65.6534 39.2496 66.1562 39.2496 66.7216C39.2496 67.2784 39.1246 67.7756 38.8746 68.2131C38.6275 68.6477 38.2866 68.9915 37.8519 69.2443C37.4173 69.4943 36.9229 69.6193 36.369 69.6193Z" fill="white" fill-opacity="0.8"/>
<path d="M29.6307 111.119C29.1307 111.119 28.6804 111.02 28.2798 110.821C27.8793 110.622 27.5582 110.349 27.3168 110.003C27.0753 109.656 26.9432 109.261 26.9205 108.818H27.9432C27.983 109.213 28.1619 109.54 28.4801 109.798C28.8011 110.054 29.1847 110.182 29.6307 110.182C29.9886 110.182 30.3068 110.098 30.5852 109.93C30.8665 109.763 31.0866 109.533 31.2457 109.24C31.4077 108.945 31.4886 108.611 31.4886 108.239C31.4886 107.858 31.4048 107.518 31.2372 107.22C31.0724 106.919 30.8452 106.682 30.5554 106.509C30.2656 106.335 29.9347 106.247 29.5625 106.244C29.2955 106.241 29.0213 106.283 28.7401 106.368C28.4588 106.45 28.2273 106.557 28.0455 106.688L27.0568 106.568L27.5852 102.273H32.1193V103.21H28.4716L28.1648 105.784H28.2159C28.3949 105.642 28.6193 105.524 28.8892 105.43C29.1591 105.337 29.4403 105.29 29.733 105.29C30.267 105.29 30.7429 105.418 31.1605 105.673C31.581 105.926 31.9105 106.273 32.1491 106.713C32.3906 107.153 32.5114 107.656 32.5114 108.222C32.5114 108.778 32.3864 109.276 32.1364 109.713C31.8892 110.148 31.5483 110.491 31.1136 110.744C30.679 110.994 30.1847 111.119 29.6307 111.119ZM37.0508 111.119C36.4087 111.119 35.8619 110.945 35.4102 110.595C34.9585 110.243 34.6133 109.733 34.3746 109.065C34.136 108.395 34.0167 107.585 34.0167 106.636C34.0167 105.693 34.136 104.888 34.3746 104.22C34.6161 103.55 34.9627 103.038 35.4144 102.686C35.869 102.331 36.4144 102.153 37.0508 102.153C37.6871 102.153 38.2312 102.331 38.6829 102.686C39.1374 103.038 39.484 103.55 39.7227 104.22C39.9641 104.888 40.0849 105.693 40.0849 106.636C40.0849 107.585 39.9656 108.395 39.7269 109.065C39.4883 109.733 39.1431 110.243 38.6914 110.595C38.2397 110.945 37.6928 111.119 37.0508 111.119ZM37.0508 110.182C37.6871 110.182 38.1815 109.875 38.5337 109.261C38.886 108.648 39.0621 107.773 39.0621 106.636C39.0621 105.881 38.9812 105.237 38.8192 104.706C38.6602 104.175 38.43 103.77 38.1289 103.491C37.8306 103.213 37.4712 103.074 37.0508 103.074C36.4201 103.074 35.9272 103.385 35.5721 104.007C35.217 104.626 35.0394 105.503 35.0394 106.636C35.0394 107.392 35.119 108.034 35.2781 108.562C35.4371 109.091 35.6658 109.493 35.9641 109.768C36.2653 110.044 36.6275 110.182 37.0508 110.182Z" fill="white" fill-opacity="0.8"/>
<path d="M26.9034 152.5V151.733L29.7841 148.58C30.1222 148.21 30.4006 147.889 30.6193 147.616C30.8381 147.341 31 147.082 31.1051 146.841C31.2131 146.597 31.267 146.341 31.267 146.074C31.267 145.767 31.1932 145.501 31.0455 145.277C30.9006 145.053 30.7017 144.879 30.4489 144.757C30.196 144.635 29.9119 144.574 29.5966 144.574C29.2614 144.574 28.9688 144.643 28.7188 144.783C28.4716 144.919 28.2798 145.111 28.1435 145.358C28.0099 145.605 27.9432 145.895 27.9432 146.227H26.9375C26.9375 145.716 27.0554 145.267 27.2912 144.881C27.527 144.494 27.848 144.193 28.2543 143.977C28.6634 143.761 29.1222 143.653 29.6307 143.653C30.142 143.653 30.5952 143.761 30.9901 143.977C31.3849 144.193 31.6946 144.484 31.919 144.851C32.1435 145.217 32.2557 145.625 32.2557 146.074C32.2557 146.395 32.1974 146.709 32.081 147.016C31.9673 147.32 31.7685 147.659 31.4844 148.034C31.2031 148.406 30.8125 148.861 30.3125 149.398L28.3523 151.494V151.562H32.4091V152.5H26.9034ZM36.8963 152.619C36.3963 152.619 35.946 152.52 35.5455 152.321C35.1449 152.122 34.8239 151.849 34.5824 151.503C34.3409 151.156 34.2088 150.761 34.1861 150.318H35.2088C35.2486 150.713 35.4276 151.04 35.7457 151.298C36.0668 151.554 36.4503 151.682 36.8963 151.682C37.2543 151.682 37.5724 151.598 37.8509 151.43C38.1321 151.263 38.3523 151.033 38.5114 150.74C38.6733 150.445 38.7543 150.111 38.7543 149.739C38.7543 149.358 38.6705 149.018 38.5028 148.72C38.3381 148.419 38.1108 148.182 37.821 148.009C37.5313 147.835 37.2003 147.747 36.8281 147.744C36.5611 147.741 36.2869 147.783 36.0057 147.868C35.7244 147.95 35.4929 148.057 35.3111 148.188L34.3224 148.068L34.8509 143.773H39.3849V144.71H35.7372L35.4304 147.284H35.4815C35.6605 147.142 35.8849 147.024 36.1548 146.93C36.4247 146.837 36.706 146.79 36.9986 146.79C37.5327 146.79 38.0085 146.918 38.4261 147.173C38.8466 147.426 39.1761 147.773 39.4148 148.213C39.6562 148.653 39.777 149.156 39.777 149.722C39.777 150.278 39.652 150.776 39.402 151.213C39.1548 151.648 38.8139 151.991 38.3793 152.244C37.9446 152.494 37.4503 152.619 36.8963 152.619Z" fill="white" fill-opacity="0.8"/>
<path d="M36.75 194.119C36.108 194.119 35.5611 193.945 35.1094 193.595C34.6577 193.243 34.3125 192.733 34.0739 192.065C33.8352 191.395 33.7159 190.585 33.7159 189.636C33.7159 188.693 33.8352 187.888 34.0739 187.22C34.3153 186.55 34.6619 186.038 35.1136 185.686C35.5682 185.331 36.1136 185.153 36.75 185.153C37.3864 185.153 37.9304 185.331 38.3821 185.686C38.8366 186.038 39.1832 186.55 39.4219 187.22C39.6634 187.888 39.7841 188.693 39.7841 189.636C39.7841 190.585 39.6648 191.395 39.4261 192.065C39.1875 192.733 38.8423 193.243 38.3906 193.595C37.9389 193.945 37.392 194.119 36.75 194.119ZM36.75 193.182C37.3864 193.182 37.8807 192.875 38.233 192.261C38.5852 191.648 38.7614 190.773 38.7614 189.636C38.7614 188.881 38.6804 188.237 38.5185 187.706C38.3594 187.175 38.1293 186.77 37.8281 186.491C37.5298 186.213 37.1705 186.074 36.75 186.074C36.1193 186.074 35.6264 186.385 35.2713 187.007C34.9162 187.626 34.7386 188.503 34.7386 189.636C34.7386 190.392 34.8182 191.034 34.9773 191.562C35.1364 192.091 35.3651 192.493 35.6634 192.768C35.9645 193.044 36.3267 193.182 36.75 193.182Z" fill="white" fill-opacity="0.8"/>
<line x1="46" y1="21.5" x2="321" y2="21.5" stroke="#D9D9FF" stroke-opacity="0.25" stroke-dasharray="2"/>
<line x1="46" y1="63.75" x2="321" y2="63.75" stroke="#D9D9FF" stroke-opacity="0.25" stroke-dasharray="2"/>
<line x1="46" y1="106" x2="321" y2="106" stroke="#D9D9FF" stroke-opacity="0.25" stroke-dasharray="2"/>
<line x1="46" y1="148.25" x2="321" y2="148.25" stroke="#D9D9FF" stroke-opacity="0.25" stroke-dasharray="2"/>
<line x1="46" y1="190.5" x2="321" y2="190.5" stroke="#D9D9FF" stroke-opacity="0.5"/>
<g filter="url(#filter0_d_182_713)">
<g filter="url(#filter1_ddd_182_713)">
<path d="M64.7858 173.3L104.357 164.8L143.929 123.634L183.5 98.2335L223.071 63.3472L262.643 72.8829L302.214 63.0967M302.214 63.0967V63.0967Z" stroke="#1F94F3"/>
</g>
</g>
<path d="M65.9682 198.273V207H64.9114V199.381H64.8603L62.7296 200.795V199.722L64.9114 198.273H65.9682Z" fill="white" fill-opacity="0.8"/>
<path d="M101.628 207V206.233L104.508 203.08C104.846 202.71 105.125 202.389 105.344 202.116C105.562 201.841 105.724 201.582 105.829 201.341C105.937 201.097 105.991 200.841 105.991 200.574C105.991 200.267 105.917 200.001 105.77 199.777C105.625 199.553 105.426 199.379 105.173 199.257C104.92 199.135 104.636 199.074 104.321 199.074C103.986 199.074 103.693 199.143 103.443 199.283C103.196 199.419 103.004 199.611 102.868 199.858C102.734 200.105 102.667 200.395 102.667 200.727H101.662C101.662 200.216 101.78 199.767 102.016 199.381C102.251 198.994 102.572 198.693 102.979 198.477C103.388 198.261 103.846 198.153 104.355 198.153C104.866 198.153 105.319 198.261 105.714 198.477C106.109 198.693 106.419 198.984 106.643 199.351C106.868 199.717 106.98 200.125 106.98 200.574C106.98 200.895 106.922 201.209 106.805 201.516C106.692 201.82 106.493 202.159 106.209 202.534C105.927 202.906 105.537 203.361 105.037 203.898L103.077 205.994V206.062H107.133V207H101.628Z" fill="white" fill-opacity="0.8"/>
<path d="M143.96 207.119C143.398 207.119 142.897 207.023 142.456 206.83C142.019 206.636 141.671 206.368 141.412 206.024C141.157 205.678 141.017 205.276 140.995 204.818H142.068C142.091 205.099 142.188 205.342 142.358 205.547C142.529 205.749 142.752 205.905 143.027 206.016C143.303 206.126 143.608 206.182 143.943 206.182C144.318 206.182 144.651 206.116 144.941 205.986C145.23 205.855 145.458 205.673 145.622 205.44C145.787 205.207 145.87 204.938 145.87 204.631C145.87 204.31 145.79 204.027 145.631 203.783C145.472 203.536 145.239 203.342 144.932 203.203C144.625 203.064 144.25 202.994 143.807 202.994H143.108V202.057H143.807C144.154 202.057 144.458 201.994 144.719 201.869C144.983 201.744 145.189 201.568 145.337 201.341C145.487 201.114 145.563 200.847 145.563 200.54C145.563 200.244 145.497 199.987 145.367 199.768C145.236 199.55 145.051 199.379 144.813 199.257C144.577 199.135 144.299 199.074 143.978 199.074C143.676 199.074 143.392 199.129 143.125 199.24C142.861 199.348 142.645 199.506 142.478 199.713C142.31 199.918 142.219 200.165 142.205 200.455H141.182C141.199 199.997 141.337 199.597 141.595 199.253C141.854 198.906 142.192 198.636 142.61 198.443C143.03 198.25 143.492 198.153 143.995 198.153C144.534 198.153 144.997 198.263 145.384 198.482C145.77 198.697 146.067 198.983 146.274 199.338C146.482 199.693 146.585 200.077 146.585 200.489C146.585 200.98 146.456 201.399 146.198 201.746C145.942 202.092 145.594 202.332 145.154 202.466V202.534C145.705 202.625 146.135 202.859 146.445 203.237C146.755 203.612 146.909 204.077 146.909 204.631C146.909 205.105 146.78 205.531 146.522 205.909C146.266 206.284 145.916 206.58 145.473 206.795C145.03 207.011 144.526 207.119 143.96 207.119Z" fill="white" fill-opacity="0.8"/>
<path d="M180.349 205.21V204.341L184.184 198.273H184.815V199.619H184.389L181.491 204.205V204.273H186.656V205.21H180.349ZM184.457 207V204.946V204.541V198.273H185.463V207H184.457Z" fill="white" fill-opacity="0.8"/>
<path d="M223.052 207.119C222.552 207.119 222.101 207.02 221.701 206.821C221.3 206.622 220.979 206.349 220.738 206.003C220.496 205.656 220.364 205.261 220.341 204.818H221.364C221.404 205.213 221.583 205.54 221.901 205.798C222.222 206.054 222.606 206.182 223.052 206.182C223.41 206.182 223.728 206.098 224.006 205.93C224.287 205.763 224.508 205.533 224.667 205.24C224.829 204.945 224.91 204.611 224.91 204.239C224.91 203.858 224.826 203.518 224.658 203.22C224.493 202.919 224.266 202.682 223.976 202.509C223.687 202.335 223.356 202.247 222.983 202.244C222.716 202.241 222.442 202.283 222.161 202.368C221.88 202.45 221.648 202.557 221.466 202.688L220.478 202.568L221.006 198.273H225.54V199.21H221.893L221.586 201.784H221.637C221.816 201.642 222.04 201.524 222.31 201.43C222.58 201.337 222.861 201.29 223.154 201.29C223.688 201.29 224.164 201.418 224.581 201.673C225.002 201.926 225.331 202.273 225.57 202.713C225.812 203.153 225.932 203.656 225.932 204.222C225.932 204.778 225.807 205.276 225.557 205.713C225.31 206.148 224.969 206.491 224.535 206.744C224.1 206.994 223.606 207.119 223.052 207.119Z" fill="white" fill-opacity="0.8"/>
<path d="M262.7 207.119C262.342 207.114 261.984 207.045 261.626 206.915C261.268 206.784 260.941 206.564 260.646 206.254C260.35 205.942 260.113 205.52 259.934 204.989C259.755 204.455 259.666 203.784 259.666 202.977C259.666 202.205 259.738 201.52 259.883 200.923C260.028 200.324 260.238 199.82 260.514 199.411C260.789 198.999 261.122 198.686 261.511 198.473C261.903 198.26 262.345 198.153 262.836 198.153C263.325 198.153 263.76 198.251 264.14 198.447C264.524 198.641 264.836 198.911 265.078 199.257C265.319 199.604 265.475 200.003 265.546 200.455H264.507C264.41 200.062 264.223 199.737 263.944 199.479C263.666 199.22 263.296 199.091 262.836 199.091C262.16 199.091 261.627 199.385 261.238 199.973C260.852 200.561 260.657 201.386 260.654 202.449H260.723C260.882 202.207 261.071 202.001 261.289 201.831C261.511 201.658 261.755 201.524 262.022 201.43C262.289 201.337 262.572 201.29 262.87 201.29C263.37 201.29 263.828 201.415 264.243 201.665C264.657 201.912 264.99 202.254 265.24 202.692C265.49 203.126 265.615 203.625 265.615 204.188C265.615 204.727 265.494 205.222 265.252 205.67C265.011 206.116 264.671 206.472 264.234 206.736C263.799 206.997 263.288 207.125 262.7 207.119ZM262.7 206.182C263.058 206.182 263.379 206.092 263.663 205.913C263.95 205.734 264.176 205.494 264.341 205.193C264.508 204.892 264.592 204.557 264.592 204.188C264.592 203.827 264.511 203.499 264.349 203.203C264.19 202.905 263.97 202.668 263.689 202.491C263.41 202.315 263.092 202.227 262.734 202.227C262.464 202.227 262.213 202.281 261.98 202.389C261.747 202.494 261.542 202.639 261.366 202.824C261.193 203.009 261.056 203.22 260.957 203.459C260.858 203.695 260.808 203.943 260.808 204.205C260.808 204.551 260.889 204.875 261.051 205.176C261.216 205.477 261.44 205.72 261.724 205.905C262.011 206.089 262.336 206.182 262.7 206.182Z" fill="white" fill-opacity="0.8"/>
<path d="M299.963 207L303.866 199.278V199.21H299.366V198.273H304.957V199.261L301.071 207H299.963Z" fill="white" fill-opacity="0.8"/>
<rect x="145.5" y="237" width="16" height="2" fill="#1F94F3"/>
<path d="M173.58 236.5H172.523C172.46 236.196 172.351 235.929 172.195 235.699C172.041 235.469 171.854 235.276 171.632 235.119C171.413 234.96 171.17 234.841 170.903 234.761C170.636 234.682 170.358 234.642 170.068 234.642C169.54 234.642 169.061 234.776 168.632 235.043C168.206 235.31 167.866 235.703 167.614 236.223C167.364 236.743 167.239 237.381 167.239 238.136C167.239 238.892 167.364 239.53 167.614 240.05C167.866 240.57 168.206 240.963 168.632 241.23C169.061 241.497 169.54 241.631 170.068 241.631C170.358 241.631 170.636 241.591 170.903 241.511C171.17 241.432 171.413 241.314 171.632 241.158C171.854 240.999 172.041 240.804 172.195 240.574C172.351 240.341 172.46 240.074 172.523 239.773H173.58C173.5 240.219 173.355 240.618 173.145 240.97C172.935 241.322 172.673 241.622 172.361 241.869C172.048 242.114 171.697 242.3 171.308 242.428C170.922 242.555 170.509 242.619 170.068 242.619C169.324 242.619 168.662 242.438 168.082 242.074C167.503 241.71 167.047 241.193 166.714 240.523C166.382 239.852 166.216 239.057 166.216 238.136C166.216 237.216 166.382 236.42 166.714 235.75C167.047 235.08 167.503 234.562 168.082 234.199C168.662 233.835 169.324 233.653 170.068 233.653C170.509 233.653 170.922 233.717 171.308 233.845C171.697 233.973 172.048 234.161 172.361 234.408C172.673 234.652 172.935 234.95 173.145 235.303C173.355 235.652 173.5 236.051 173.58 236.5ZM177.81 242.636C177.219 242.636 176.701 242.496 176.255 242.214C175.811 241.933 175.465 241.54 175.215 241.034C174.968 240.528 174.844 239.937 174.844 239.261C174.844 238.58 174.968 237.984 175.215 237.476C175.465 236.967 175.811 236.572 176.255 236.291C176.701 236.01 177.219 235.869 177.81 235.869C178.401 235.869 178.918 236.01 179.361 236.291C179.807 236.572 180.154 236.967 180.401 237.476C180.651 237.984 180.776 238.58 180.776 239.261C180.776 239.937 180.651 240.528 180.401 241.034C180.154 241.54 179.807 241.933 179.361 242.214C178.918 242.496 178.401 242.636 177.81 242.636ZM177.81 241.733C178.259 241.733 178.628 241.618 178.918 241.388C179.208 241.158 179.422 240.855 179.561 240.48C179.701 240.105 179.77 239.699 179.77 239.261C179.77 238.824 179.701 238.416 179.561 238.038C179.422 237.661 179.208 237.355 178.918 237.122C178.628 236.889 178.259 236.773 177.81 236.773C177.361 236.773 176.992 236.889 176.702 237.122C176.412 237.355 176.198 237.661 176.059 238.038C175.919 238.416 175.85 238.824 175.85 239.261C175.85 239.699 175.919 240.105 176.059 240.48C176.198 240.855 176.412 241.158 176.702 241.388C176.992 241.618 177.361 241.733 177.81 241.733ZM186.947 237.42L186.044 237.676C185.987 237.526 185.903 237.379 185.793 237.237C185.685 237.092 185.537 236.973 185.349 236.879C185.162 236.786 184.922 236.739 184.629 236.739C184.229 236.739 183.895 236.831 183.628 237.016C183.364 237.197 183.232 237.429 183.232 237.71C183.232 237.96 183.322 238.158 183.504 238.303C183.686 238.447 183.97 238.568 184.357 238.665L185.328 238.903C185.913 239.045 186.349 239.263 186.636 239.555C186.923 239.845 187.067 240.219 187.067 240.676C187.067 241.051 186.959 241.386 186.743 241.682C186.53 241.977 186.232 242.21 185.848 242.381C185.464 242.551 185.018 242.636 184.51 242.636C183.842 242.636 183.29 242.491 182.852 242.202C182.415 241.912 182.138 241.489 182.021 240.932L182.976 240.693C183.067 241.045 183.239 241.31 183.491 241.486C183.747 241.662 184.081 241.75 184.493 241.75C184.962 241.75 185.334 241.651 185.609 241.452C185.888 241.25 186.027 241.009 186.027 240.727C186.027 240.5 185.947 240.31 185.788 240.156C185.629 240 185.385 239.884 185.055 239.807L183.964 239.551C183.365 239.409 182.925 239.189 182.643 238.891C182.365 238.589 182.226 238.213 182.226 237.761C182.226 237.392 182.33 237.065 182.537 236.781C182.747 236.497 183.033 236.274 183.393 236.112C183.757 235.95 184.169 235.869 184.629 235.869C185.277 235.869 185.786 236.011 186.155 236.295C186.527 236.58 186.791 236.955 186.947 237.42ZM191.427 235.955V236.807H188.035V235.955H191.427ZM189.024 234.386H190.029V240.625C190.029 240.909 190.071 241.122 190.153 241.264C190.238 241.403 190.346 241.497 190.477 241.545C190.61 241.591 190.751 241.614 190.899 241.614C191.01 241.614 191.1 241.608 191.172 241.597C191.243 241.582 191.299 241.571 191.342 241.562L191.547 242.466C191.478 242.491 191.383 242.517 191.261 242.543C191.139 242.571 190.984 242.585 190.797 242.585C190.512 242.585 190.234 242.524 189.961 242.402C189.691 242.28 189.467 242.094 189.288 241.844C189.112 241.594 189.024 241.278 189.024 240.898V234.386Z" fill="white" fill-opacity="0.8"/>
<defs>
<filter id="filter0_d_182_713" x="21" y="3" width="325" height="215" filterUnits="userSpaceOnUse" color-interpolation-filters="sRGB">
<feFlood flood-opacity="0" result="BackgroundImageFix"/>
<feColorMatrix in="SourceAlpha" type="matrix" values="0 0 0 0 0 0 0 0 0 0 0 0 0 0 0 0 0 0 127 0" result="hardAlpha"/>
<feOffset dy="4"/>
<feGaussianBlur stdDeviation="12"/>
<feComposite in2="hardAlpha" operator="out"/>
<feColorMatrix type="matrix" values="0 0 0 0 0.121065 0 0 0 0 0.581653 0 0 0 0 0.953846 0 0 0 1 0"/>
<feBlend mode="normal" in2="BackgroundImageFix" result="effect1_dropShadow_182_713"/>
<feBlend mode="normal" in="SourceGraphic" in2="effect1_dropShadow_182_713" result="shape"/>
</filter>
<filter id="filter1_ddd_182_713" x="46.6808" y="53.6113" width="273.654" height="147.177" filterUnits="userSpaceOnUse" color-interpolation-filters="sRGB">
<feFlood flood-opacity="0" result="BackgroundImageFix"/>
<feColorMatrix in="SourceAlpha" type="matrix" values="0 0 0 0 0 0 0 0 0 0 0 0 0 0 0 0 0 0 127 0" result="hardAlpha"/>
<feOffset dy="3"/>
<feGaussianBlur stdDeviation="1.5"/>
<feColorMatrix type="matrix" values="0 0 0 0 0.117647 0 0 0 0 0.227451 0 0 0 0 0.541176 0 0 0 0.4 0"/>
<feBlend mode="normal" in2="BackgroundImageFix" result="effect1_dropShadow_182_713"/>
<feColorMatrix in="SourceAlpha" type="matrix" values="0 0 0 0 0 0 0 0 0 0 0 0 0 0 0 0 0 0 127 0" result="hardAlpha"/>
<feOffset dy="6"/>
<feGaussianBlur stdDeviation="4.5"/>
<feColorMatrix type="matrix" values="0 0 0 0 0.117647 0 0 0 0 0.227451 0 0 0 0 0.541176 0 0 0 0.4 0"/>
<feBlend mode="normal" in2="effect1_dropShadow_182_713" result="effect2_dropShadow_182_713"/>
<feColorMatrix in="SourceAlpha" type="matrix" values="0 0 0 0 0 0 0 0 0 0 0 0 0 0 0 0 0 0 127 0" result="hardAlpha"/>
<feOffset dy="9"/>
<feGaussianBlur stdDeviation="9"/>
<feColorMatrix type="matrix" values="0 0 0 0 0.117647 0 0 0 0 0.227451 0 0 0 0 0.541176 0 0 0 0.4 0"/>
<feBlend mode="normal" in2="effect2_dropShadow_182_713" result="effect3_dropShadow_182_713"/>
<feBlend mode="normal" in="SourceGraphic" in2="effect3_dropShadow_182_713" result="shape"/>
</filter>
</defs>
</svg>
